%TF.GenerationSoftware,KiCad,Pcbnew,9.0.1*%
%TF.CreationDate,2026-04-05T14:34:15+03:00*%
%TF.ProjectId,b738-anahtarlik,62373338-2d61-46e6-9168-7461726c696b,rev?*%
%TF.SameCoordinates,Original*%
%TF.FileFunction,Copper,L1,Top*%
%TF.FilePolarity,Positive*%
%FSLAX46Y46*%
G04 Gerber Fmt 4.6, Leading zero omitted, Abs format (unit mm)*
G04 Created by KiCad (PCBNEW 9.0.1) date 2026-04-05 14:34:15*
%MOMM*%
%LPD*%
G01*
G04 APERTURE LIST*
%ADD10C,0.300000*%
%TA.AperFunction,NonConductor*%
%ADD11C,0.300000*%
%TD*%
%TA.AperFunction,ComponentPad*%
%ADD12R,1.500000X1.500000*%
%TD*%
%TA.AperFunction,ComponentPad*%
%ADD13C,1.600000*%
%TD*%
%TA.AperFunction,ComponentPad*%
%ADD14O,1.600000X1.600000*%
%TD*%
%TA.AperFunction,SMDPad,CuDef*%
%ADD15R,5.100000X5.100000*%
%TD*%
%TA.AperFunction,SMDPad,CuDef*%
%ADD16C,17.800000*%
%TD*%
%TA.AperFunction,ComponentPad*%
%ADD17C,1.800000*%
%TD*%
%TA.AperFunction,ComponentPad*%
%ADD18R,1.800000X1.800000*%
%TD*%
%TA.AperFunction,Conductor*%
%ADD19C,0.200000*%
%TD*%
G04 APERTURE END LIST*
D10*
D11*
X86140379Y-96275700D02*
X85131296Y-95739161D01*
X86574780Y-94241535D02*
X85635837Y-96007430D01*
X84383101Y-93291926D02*
X84511902Y-93252547D01*
X84511902Y-93252547D02*
X84808885Y-93302592D01*
X84808885Y-93302592D02*
X84977065Y-93392015D01*
X84977065Y-93392015D02*
X85184624Y-93610240D01*
X85184624Y-93610240D02*
X85263382Y-93867844D01*
X85263382Y-93867844D02*
X85258049Y-94080736D01*
X85258049Y-94080736D02*
X85163293Y-94461808D01*
X85163293Y-94461808D02*
X85029158Y-94714079D01*
X85029158Y-94714079D02*
X84766222Y-95005728D01*
X84766222Y-95005728D02*
X84592708Y-95129197D01*
X84592708Y-95129197D02*
X84335104Y-95207955D01*
X84335104Y-95207955D02*
X84038122Y-95157910D01*
X84038122Y-95157910D02*
X83869942Y-95068487D01*
X83869942Y-95068487D02*
X83662383Y-94850262D01*
X83662383Y-94850262D02*
X83623004Y-94721460D01*
X83358019Y-93394063D02*
X82012575Y-92678678D01*
X81529366Y-91558840D02*
X80590422Y-93324736D01*
X80520283Y-91022302D02*
X80740556Y-92433789D01*
X79581340Y-92788197D02*
X81126961Y-92315653D01*
X78754387Y-90083358D02*
X78895903Y-91237242D01*
X79763470Y-90619897D02*
X78824527Y-92385793D01*
X78824527Y-92385793D02*
X78151805Y-92028100D01*
X78151805Y-92028100D02*
X78028336Y-91854587D01*
X78028336Y-91854587D02*
X77988958Y-91725785D01*
X77988958Y-91725785D02*
X77994291Y-91512893D01*
X77994291Y-91512893D02*
X78128425Y-91260622D01*
X78128425Y-91260622D02*
X78301939Y-91137153D01*
X78301939Y-91137153D02*
X78430741Y-91097774D01*
X78430741Y-91097774D02*
X78643633Y-91103107D01*
X78643633Y-91103107D02*
X79316355Y-91460800D01*
X77997575Y-89680954D02*
X77058632Y-91446849D01*
X77058632Y-91446849D02*
X77140674Y-89872515D01*
X77140674Y-89872515D02*
X75881369Y-90820887D01*
X75881369Y-90820887D02*
X76820312Y-89054992D01*
D12*
%TO.P,SW1,1,B*%
%TO.N,Net-(BT1-+)*%
X108094001Y-58422001D03*
D13*
%TO.P,SW1,2,C*%
%TO.N,unconnected-(SW1-C-Pad2)*%
X108094001Y-60962001D03*
%TO.P,SW1,3,A*%
%TO.N,Net-(D3-A)*%
X108094001Y-55882001D03*
%TD*%
D14*
%TO.P,R1,2*%
%TO.N,Net-(D3-A)*%
X111684001Y-69852001D03*
D13*
%TO.P,R1,1*%
%TO.N,Net-(D1-A)*%
X111684002Y-77472001D03*
%TD*%
D14*
%TO.P,R2,2*%
%TO.N,Net-(D3-A)*%
X104064001Y-69852000D03*
D13*
%TO.P,R2,1*%
%TO.N,Net-(D2-A)*%
X104064001Y-77472001D03*
%TD*%
D15*
%TO.P,BT1,1,+*%
%TO.N,Net-(BT1-+)*%
X95304000Y-97792001D03*
X120904000Y-97792001D03*
D16*
%TO.P,BT1,2,-*%
%TO.N,GND*%
X108104000Y-97792001D03*
%TD*%
D17*
%TO.P,D1,2,A*%
%TO.N,Net-(D1-A)*%
X156064001Y-80752001D03*
D18*
%TO.P,D1,1,K*%
%TO.N,GND*%
X158604001Y-80752001D03*
%TD*%
%TO.P,D3,1,K*%
%TO.N,GND*%
X106604001Y-36832001D03*
D17*
%TO.P,D3,2,A*%
%TO.N,Net-(D3-A)*%
X109144001Y-36832001D03*
%TD*%
D18*
%TO.P,D2,1,K*%
%TO.N,GND*%
X57564001Y-80752001D03*
D17*
%TO.P,D2,2,A*%
%TO.N,Net-(D2-A)*%
X60104001Y-80752001D03*
%TD*%
D19*
%TO.N,Net-(D3-A)*%
X109144001Y-54832001D02*
X108094001Y-55882001D01*
X109144001Y-36832001D02*
X109144001Y-54832001D01*
%TO.N,Net-(D1-A)*%
X111684002Y-84972002D02*
X111684002Y-77472001D01*
X115840394Y-89128394D02*
X111684002Y-84972002D01*
X117217608Y-89128394D02*
X115840394Y-89128394D01*
X117901216Y-89812001D02*
X117217608Y-89128394D01*
X131764001Y-89812001D02*
X117901216Y-89812001D01*
X147744001Y-85932001D02*
X135644001Y-85932001D01*
X135644001Y-85932001D02*
X131764001Y-89812001D01*
X152924001Y-80752001D02*
X147744001Y-85932001D01*
X156064001Y-80752001D02*
X152924001Y-80752001D01*
%TO.N,Net-(BT1-+)*%
X112785001Y-63113001D02*
X108094001Y-58422001D01*
X112785001Y-70308051D02*
X112785001Y-63113001D01*
X109144001Y-73949051D02*
X112785001Y-70308051D01*
X120904000Y-96012000D02*
X109144001Y-84252001D01*
X109144001Y-84252001D02*
X109144001Y-73949051D01*
X120904000Y-97792001D02*
X120904000Y-96012000D01*
%TO.N,Net-(D3-A)*%
X104064001Y-59912001D02*
X108094001Y-55882001D01*
X104064001Y-69852000D02*
X104064001Y-59912001D01*
%TO.N,Net-(D2-A)*%
X104064001Y-85332001D02*
X104064001Y-77472001D01*
X98434001Y-90962001D02*
X104064001Y-85332001D01*
X83844001Y-87632001D02*
X87174001Y-90962001D01*
X87174001Y-90962001D02*
X98434001Y-90962001D01*
X68754001Y-87632001D02*
X83844001Y-87632001D01*
X60104001Y-80752001D02*
X61874001Y-80752001D01*
X61874001Y-80752001D02*
X68754001Y-87632001D01*
%TO.N,Net-(BT1-+)*%
X95304000Y-95042001D02*
X95304000Y-97792001D01*
X101755000Y-88591001D02*
X95304000Y-95042001D01*
X111915179Y-88591001D02*
X101755000Y-88591001D01*
X120904000Y-97579822D02*
X111915179Y-88591001D01*
X120904000Y-97792001D02*
X120904000Y-97579822D01*
%TO.N,Net-(D3-A)*%
X111684001Y-69852001D02*
X104064001Y-69852000D01*
%TD*%
%TA.AperFunction,Conductor*%
%TO.N,GND*%
G36*
X84119760Y-26890423D02*
G01*
X107153077Y-32524892D01*
X107169380Y-32530098D01*
X107190434Y-32538463D01*
X107225140Y-32542520D01*
X107259079Y-32550823D01*
X107290301Y-32550139D01*
X107321327Y-32553767D01*
X107355901Y-32548703D01*
X107390832Y-32547939D01*
X107420816Y-32539196D01*
X107451721Y-32534671D01*
X107483804Y-32520832D01*
X107517348Y-32511053D01*
X107544049Y-32494847D01*
X107572728Y-32482478D01*
X107594114Y-32465569D01*
X107606683Y-32456834D01*
X107630008Y-32442679D01*
X107651606Y-32420113D01*
X107676105Y-32400744D01*
X107696971Y-32372716D01*
X107721131Y-32347476D01*
X107736150Y-32320094D01*
X107754804Y-32295040D01*
X107767706Y-32262565D01*
X107784509Y-32231933D01*
X107791930Y-32201593D01*
X107803463Y-32172568D01*
X107807519Y-32137868D01*
X107815824Y-32103923D01*
X107815328Y-32081274D01*
X107816137Y-32064161D01*
X107974411Y-30710414D01*
X108001747Y-30646114D01*
X108059507Y-30606800D01*
X108129353Y-30604955D01*
X108189108Y-30641164D01*
X108219801Y-30703931D01*
X108220732Y-30710413D01*
X108380005Y-32072696D01*
X108379322Y-32103923D01*
X108387622Y-32137854D01*
X108388512Y-32145466D01*
X108388514Y-32145476D01*
X108391682Y-32172570D01*
X108400043Y-32193615D01*
X108403213Y-32201593D01*
X108403214Y-32201595D01*
X108410636Y-32231933D01*
X108427437Y-32262563D01*
X108430267Y-32269686D01*
X108430270Y-32269692D01*
X108440342Y-32295043D01*
X108453863Y-32313202D01*
X108463121Y-32327618D01*
X108474013Y-32347475D01*
X108492873Y-32367179D01*
X108492872Y-32367179D01*
X108498176Y-32372720D01*
X108519040Y-32400744D01*
X108543538Y-32420113D01*
X108549467Y-32426308D01*
X108549472Y-32426312D01*
X108565138Y-32442679D01*
X108588455Y-32456830D01*
X108601018Y-32465559D01*
X108622417Y-32482478D01*
X108642073Y-32490955D01*
X108643208Y-32491445D01*
X108643212Y-32491447D01*
X108651099Y-32494848D01*
X108677797Y-32511053D01*
X108711337Y-32520831D01*
X108718378Y-32523868D01*
X108720748Y-32524890D01*
X108743424Y-32534671D01*
X108765832Y-32537952D01*
X108774329Y-32539196D01*
X108804313Y-32547939D01*
X108839243Y-32548703D01*
X108873818Y-32553767D01*
X108904843Y-32550139D01*
X108936066Y-32550823D01*
X108970004Y-32542520D01*
X109004711Y-32538463D01*
X109025756Y-32530101D01*
X109042071Y-32524891D01*
X132075385Y-26890424D01*
X132145178Y-26893616D01*
X132202170Y-26934035D01*
X132226504Y-26986885D01*
X132234539Y-27027635D01*
X132236227Y-27038907D01*
X132329990Y-27948387D01*
X132330644Y-27961103D01*
X132330644Y-29811883D01*
X132310959Y-29878922D01*
X132277250Y-29913819D01*
X112334860Y-43726899D01*
X112334859Y-43726898D01*
X112323199Y-43734973D01*
X112315161Y-43738167D01*
X112269183Y-43772389D01*
X112267432Y-43773602D01*
X112267405Y-43773622D01*
X112221990Y-43805078D01*
X112216386Y-43811687D01*
X112209447Y-43816853D01*
X112173894Y-43861806D01*
X112172516Y-43863432D01*
X112136771Y-43905596D01*
X112136769Y-43905598D01*
X112133667Y-43912163D01*
X112133069Y-43913428D01*
X112127699Y-43920220D01*
X112104985Y-43972859D01*
X112104082Y-43974772D01*
X112104079Y-43974780D01*
X112080469Y-44024750D01*
X112078922Y-44033268D01*
X112075491Y-44041221D01*
X112067174Y-44097960D01*
X112066792Y-44100065D01*
X112056924Y-44154411D01*
X112056923Y-44154416D01*
X112057634Y-44163044D01*
X112056379Y-44171612D01*
X112063029Y-44228555D01*
X112063204Y-44230677D01*
X112063203Y-44230679D01*
X112067739Y-44285748D01*
X112069458Y-44293690D01*
X112068981Y-44293793D01*
X112072305Y-44307985D01*
X112857926Y-51034861D01*
X112856688Y-51048145D01*
X112865549Y-51100130D01*
X112865927Y-51103366D01*
X112871666Y-51152505D01*
X112871667Y-51152511D01*
X112871787Y-51152812D01*
X112878777Y-51177737D01*
X114063973Y-58130885D01*
X114065157Y-58139752D01*
X114670160Y-64378240D01*
X114670738Y-64389813D01*
X114740410Y-86226873D01*
X114740440Y-86236072D01*
X114740440Y-86236075D01*
X114740098Y-86237401D01*
X114740650Y-86301959D01*
X114740652Y-86302277D01*
X114740652Y-86302279D01*
X114740857Y-86366545D01*
X114740990Y-86367494D01*
X114741225Y-86369172D01*
X114741226Y-86369179D01*
X114741227Y-86369180D01*
X114753239Y-86412521D01*
X114758365Y-86431014D01*
X114758541Y-86431657D01*
X114775370Y-86493673D01*
X114776018Y-86495222D01*
X114776018Y-86495224D01*
X114776022Y-86495233D01*
X114776397Y-86496130D01*
X114808881Y-86551296D01*
X114809218Y-86551871D01*
X114841627Y-86607592D01*
X114842621Y-86608879D01*
X114842621Y-86608880D01*
X114843248Y-86609691D01*
X114843291Y-86609734D01*
X114843293Y-86609736D01*
X114878458Y-86644304D01*
X114888937Y-86654605D01*
X114889410Y-86655072D01*
X114926375Y-86691802D01*
X114935109Y-86700480D01*
X114935111Y-86700481D01*
X114936386Y-86701453D01*
X114936408Y-86701469D01*
X114937229Y-86702095D01*
X114951426Y-86710130D01*
X114993254Y-86733804D01*
X114993463Y-86733923D01*
X115049447Y-86766007D01*
X115049453Y-86766008D01*
X115050973Y-86766633D01*
X115050985Y-86766638D01*
X115051914Y-86767019D01*
X115051961Y-86767031D01*
X115051963Y-86767032D01*
X115092130Y-86777426D01*
X115114160Y-86783127D01*
X115114162Y-86783127D01*
X115114408Y-86783191D01*
X115176849Y-86799709D01*
X115178210Y-86799704D01*
X115179536Y-86800047D01*
X115179543Y-86800046D01*
X115179544Y-86800047D01*
X115243913Y-86799495D01*
X115308633Y-86799289D01*
X115308634Y-86799288D01*
X115313258Y-86799274D01*
X115319176Y-86798849D01*
X125679584Y-86710047D01*
X125679622Y-86710057D01*
X125744843Y-86709487D01*
X125811324Y-86708918D01*
X125811329Y-86708916D01*
X125811397Y-86708907D01*
X125811401Y-86708907D01*
X125873059Y-86691807D01*
X125873077Y-86691807D01*
X125873076Y-86691803D01*
X125912904Y-86680764D01*
X125938321Y-86673720D01*
X125938322Y-86673719D01*
X125946293Y-86671510D01*
X125946453Y-86671453D01*
X145454128Y-81261510D01*
X163358843Y-76347054D01*
X163428700Y-76348291D01*
X163486800Y-76387101D01*
X163514694Y-76451161D01*
X163515661Y-76465868D01*
X163530642Y-78900209D01*
X163530644Y-78900972D01*
X163530644Y-79816532D01*
X163516693Y-79873673D01*
X163133315Y-80612029D01*
X163084953Y-80662455D01*
X163083667Y-80663183D01*
X137421655Y-94976022D01*
X137421656Y-94976023D01*
X137413070Y-94980811D01*
X137411053Y-94981339D01*
X137355530Y-95012905D01*
X137354996Y-95013204D01*
X137354994Y-95013204D01*
X137297232Y-95045421D01*
X137289753Y-95050303D01*
X134937940Y-96387423D01*
X134930330Y-96391749D01*
X134929525Y-96391963D01*
X134872953Y-96424371D01*
X134872744Y-96424490D01*
X134872743Y-96424490D01*
X134811340Y-96459402D01*
X134808317Y-96461399D01*
X131985535Y-98078517D01*
X131985536Y-98078518D01*
X131972993Y-98085703D01*
X131965781Y-98087842D01*
X131915920Y-98118400D01*
X131914330Y-98119312D01*
X131865175Y-98147473D01*
X131858714Y-98152396D01*
X131858303Y-98151856D01*
X131847515Y-98160326D01*
X129754428Y-99443186D01*
X129754427Y-99443185D01*
X129751452Y-99445008D01*
X129705737Y-99469639D01*
X129695463Y-99479324D01*
X129684540Y-99486020D01*
X129684539Y-99486021D01*
X129683427Y-99486702D01*
X129683419Y-99486708D01*
X129650032Y-99521896D01*
X129645146Y-99526766D01*
X129360825Y-99794838D01*
X129360826Y-99794839D01*
X129350297Y-99804765D01*
X129343830Y-99808501D01*
X129302464Y-99849865D01*
X129301135Y-99851119D01*
X129259852Y-99890044D01*
X129259852Y-99890045D01*
X129255926Y-99896404D01*
X129250644Y-99901687D01*
X129221387Y-99952359D01*
X129220434Y-99953904D01*
X129190635Y-100002182D01*
X129190633Y-100002188D01*
X129188487Y-100009344D01*
X129184752Y-100015815D01*
X129169612Y-100072316D01*
X129169079Y-100074095D01*
X129169077Y-100074097D01*
X129152797Y-100128419D01*
X129152796Y-100128426D01*
X129152576Y-100135895D01*
X129150644Y-100143109D01*
X129150644Y-100201627D01*
X129150590Y-100203464D01*
X129150590Y-100203467D01*
X129148923Y-100260147D01*
X129149747Y-100268238D01*
X129149057Y-100268308D01*
X129150644Y-100281896D01*
X129150644Y-100538968D01*
X129146533Y-100564504D01*
X129150644Y-100604594D01*
X129150644Y-100644897D01*
X129154770Y-100660297D01*
X129154771Y-100660297D01*
X129157338Y-100669878D01*
X129159976Y-100695601D01*
X129174320Y-100733254D01*
X129175960Y-100739373D01*
X129184752Y-100772188D01*
X129184753Y-100772189D01*
X129192728Y-100786002D01*
X129201211Y-100803846D01*
X129486532Y-101552812D01*
X129489735Y-101570945D01*
X129509901Y-101614159D01*
X129511507Y-101618374D01*
X129511509Y-101618378D01*
X129526889Y-101658751D01*
X129526892Y-101658755D01*
X129530785Y-101664142D01*
X129542650Y-101684335D01*
X130049489Y-102770421D01*
X130058009Y-102795249D01*
X130409944Y-104336153D01*
X130411107Y-104341857D01*
X130496856Y-104819600D01*
X130528416Y-104995436D01*
X130538694Y-105052696D01*
X130540644Y-105074602D01*
X130540644Y-105145167D01*
X130540523Y-105150651D01*
X130538219Y-105202691D01*
X130540644Y-105213661D01*
X130540644Y-105224893D01*
X130554826Y-105277824D01*
X130555420Y-105280510D01*
X130747721Y-106150435D01*
X130750644Y-106177200D01*
X130750644Y-112264968D01*
X130750519Y-112270536D01*
X130714199Y-113078615D01*
X130713593Y-113092097D01*
X130710644Y-113103109D01*
X130710644Y-113157746D01*
X130710519Y-113160529D01*
X130710519Y-113160535D01*
X130708189Y-113212355D01*
X130708888Y-113220454D01*
X130708843Y-113220457D01*
X130710644Y-113236993D01*
X130710644Y-113439184D01*
X130707583Y-113466566D01*
X130655936Y-113694678D01*
X130645248Y-113741883D01*
X130611245Y-113802921D01*
X130549641Y-113835886D01*
X130524309Y-113838501D01*
X129342807Y-113838501D01*
X129328881Y-113835595D01*
X129277113Y-113838501D01*
X129225252Y-113838501D01*
X129223860Y-113838874D01*
X129198731Y-113842900D01*
X129077663Y-113849695D01*
X129077664Y-113849696D01*
X129068616Y-113850203D01*
X129067446Y-113849966D01*
X129002799Y-113853899D01*
X129002501Y-113853916D01*
X129002500Y-113853915D01*
X129002500Y-113853916D01*
X128933198Y-113857806D01*
X128928041Y-113858448D01*
X128708119Y-113871829D01*
X128706669Y-113871909D01*
X127684304Y-113922107D01*
X127680761Y-113922230D01*
X126887269Y-113938475D01*
X126884731Y-113938501D01*
X125851921Y-113938501D01*
X125846951Y-113937276D01*
X125786088Y-113938501D01*
X125725245Y-113938501D01*
X125721078Y-113939049D01*
X125707405Y-113940083D01*
X125359313Y-113947089D01*
X125358623Y-113947101D01*
X124938286Y-113953221D01*
X124927687Y-113952922D01*
X124730998Y-113938931D01*
X124713539Y-113936431D01*
X124665769Y-113926076D01*
X124604421Y-113892636D01*
X124571906Y-113835618D01*
X124559096Y-113785534D01*
X124556953Y-113775400D01*
X124510095Y-113496808D01*
X124509355Y-113491771D01*
X124463344Y-113125200D01*
X124462934Y-113121453D01*
X124377120Y-112207022D01*
X124376959Y-112205123D01*
X124299091Y-111188976D01*
X124296609Y-111156437D01*
X124274006Y-110860077D01*
X124234362Y-110340282D01*
X124235085Y-110336044D01*
X124229357Y-110274657D01*
X124224668Y-110213169D01*
X124224667Y-110213167D01*
X124224237Y-110211118D01*
X124222126Y-110197151D01*
X124218798Y-110161477D01*
X124155705Y-109485246D01*
X124157127Y-109473772D01*
X124149600Y-109419809D01*
X124144538Y-109365546D01*
X124144537Y-109365544D01*
X124142733Y-109357621D01*
X124142752Y-109357616D01*
X124138661Y-109341376D01*
X124095331Y-109030701D01*
X124095802Y-109026260D01*
X124086238Y-108965511D01*
X124077744Y-108904604D01*
X124077740Y-108904594D01*
X124077077Y-108902193D01*
X124074109Y-108888459D01*
X124040841Y-108677132D01*
X124039933Y-108670015D01*
X124017669Y-108443499D01*
X124017123Y-108434777D01*
X124011805Y-108238892D01*
X124011912Y-108229387D01*
X124020965Y-108047892D01*
X124021737Y-108038957D01*
X124031767Y-107957331D01*
X124044425Y-107854320D01*
X124045488Y-107847327D01*
X124081966Y-107646439D01*
X124083084Y-107640993D01*
X124201065Y-107125514D01*
X124365440Y-106409828D01*
X124367940Y-106404854D01*
X124380169Y-106345696D01*
X124393693Y-106286816D01*
X124393693Y-106286813D01*
X124394204Y-106281441D01*
X124396212Y-106268090D01*
X124479583Y-105864810D01*
X124483228Y-105856892D01*
X124492898Y-105800401D01*
X124504499Y-105744289D01*
X124504499Y-105744285D01*
X124505092Y-105736181D01*
X124505570Y-105736216D01*
X124506383Y-105721630D01*
X124537022Y-105542659D01*
X124546660Y-105511937D01*
X124548091Y-105478000D01*
X124553825Y-105444512D01*
X124553116Y-105436852D01*
X124551627Y-105420756D01*
X124551209Y-105404114D01*
X124554045Y-105336891D01*
X124554276Y-105332930D01*
X124554276Y-105332928D01*
X124558421Y-105277186D01*
X124556902Y-105269188D01*
X124557246Y-105261058D01*
X124544636Y-105204573D01*
X124533843Y-105147714D01*
X124533839Y-105147707D01*
X124533605Y-105146994D01*
X124530076Y-105139350D01*
X124528534Y-105132439D01*
X124514370Y-105105328D01*
X124513107Y-105102591D01*
X124512673Y-105099663D01*
X124510209Y-105093031D01*
X124509430Y-105093326D01*
X124506559Y-105085729D01*
X124506558Y-105085722D01*
X124506376Y-105085382D01*
X124506237Y-105084873D01*
X124503686Y-105078120D01*
X124504327Y-105077877D01*
X124503164Y-105073614D01*
X124498212Y-105066559D01*
X124491768Y-105031858D01*
X124491335Y-105021250D01*
X124491299Y-105020231D01*
X124485526Y-104838648D01*
X124487352Y-104813151D01*
X124487557Y-104811994D01*
X124483029Y-104760121D01*
X124481376Y-104708102D01*
X124477318Y-104694681D01*
X124467883Y-104586565D01*
X124468336Y-104560689D01*
X124468382Y-104560315D01*
X124468381Y-104560313D01*
X124468382Y-104560311D01*
X124461495Y-104511383D01*
X124461494Y-104511381D01*
X124461492Y-104511370D01*
X124461038Y-104508139D01*
X124456459Y-104455665D01*
X124451882Y-104443081D01*
X124409870Y-104144589D01*
X124409764Y-104143808D01*
X124396218Y-104040932D01*
X124395158Y-104024945D01*
X124395155Y-104023292D01*
X124395156Y-104023285D01*
X124389679Y-103982208D01*
X124388777Y-103972576D01*
X124386536Y-103931226D01*
X124383909Y-103923190D01*
X124378857Y-103901042D01*
X124377739Y-103892655D01*
X124361832Y-103854432D01*
X124358452Y-103845318D01*
X124345588Y-103805965D01*
X124340966Y-103798876D01*
X124330777Y-103779796D01*
X124330590Y-103779359D01*
X124308036Y-103725159D01*
X124306776Y-103723523D01*
X124305955Y-103721597D01*
X124305943Y-103721582D01*
X124305942Y-103721579D01*
X124266912Y-103671740D01*
X124266320Y-103670977D01*
X124227638Y-103620738D01*
X124225861Y-103618967D01*
X124225859Y-103618964D01*
X124225857Y-103618962D01*
X124224793Y-103617902D01*
X124224690Y-103617824D01*
X124224689Y-103617823D01*
X124195132Y-103595602D01*
X124178636Y-103580708D01*
X124172057Y-103573598D01*
X124172055Y-103573597D01*
X124152510Y-103561279D01*
X124142332Y-103554864D01*
X124135548Y-103550268D01*
X124134312Y-103549370D01*
X124122956Y-103540686D01*
X124121584Y-103540120D01*
X124114765Y-103535164D01*
X124114565Y-103534905D01*
X124113159Y-103533977D01*
X124097541Y-103522236D01*
X124088548Y-103518614D01*
X124068767Y-103508501D01*
X124060567Y-103503333D01*
X124035605Y-103495596D01*
X124032808Y-103494692D01*
X124025444Y-103492216D01*
X124024399Y-103491570D01*
X124016021Y-103489048D01*
X124014103Y-103488404D01*
X124013750Y-103488157D01*
X124007299Y-103485893D01*
X123983391Y-103476266D01*
X123975297Y-103473007D01*
X123975293Y-103473006D01*
X123975285Y-103473004D01*
X123965667Y-103471834D01*
X123945270Y-103467588D01*
X123944459Y-103467346D01*
X123902323Y-103454287D01*
X123900333Y-103454209D01*
X123898286Y-103453600D01*
X123835034Y-103451672D01*
X123834010Y-103451637D01*
X123799397Y-103450295D01*
X123791461Y-103449732D01*
X123752366Y-103445693D01*
X123752362Y-103445694D01*
X123745858Y-103446736D01*
X123722473Y-103448239D01*
X123718672Y-103448124D01*
X123715876Y-103448039D01*
X123715875Y-103448039D01*
X123715874Y-103448039D01*
X123698486Y-103452134D01*
X123673747Y-103457960D01*
X123664954Y-103459697D01*
X123659403Y-103460587D01*
X123643264Y-103462102D01*
X123618254Y-103462806D01*
X123594376Y-103469929D01*
X123586579Y-103472254D01*
X123553952Y-103477483D01*
X123523722Y-103491005D01*
X123515941Y-103493327D01*
X123515933Y-103493331D01*
X123507094Y-103495968D01*
X123486558Y-103500243D01*
X123473775Y-103501791D01*
X123439430Y-103515602D01*
X123439429Y-103515601D01*
X123434095Y-103517745D01*
X123393147Y-103529962D01*
X123373222Y-103542223D01*
X123363454Y-103546152D01*
X123363452Y-103546153D01*
X123342685Y-103554503D01*
X123319552Y-103561279D01*
X123314771Y-103562186D01*
X123274252Y-103581722D01*
X123266667Y-103585071D01*
X123224930Y-103601855D01*
X123224925Y-103601859D01*
X123221035Y-103604780D01*
X123200438Y-103617314D01*
X123144323Y-103644371D01*
X123121882Y-103652397D01*
X123120099Y-103653085D01*
X123075972Y-103677156D01*
X123073237Y-103678647D01*
X123025201Y-103701810D01*
X123015578Y-103710098D01*
X123004011Y-103716408D01*
X123004008Y-103716411D01*
X122901562Y-103772294D01*
X122880852Y-103781252D01*
X122872465Y-103784004D01*
X122872460Y-103784006D01*
X122838109Y-103806459D01*
X122833974Y-103809161D01*
X122793624Y-103831173D01*
X122779028Y-103845076D01*
X122769544Y-103851276D01*
X122764716Y-103854432D01*
X122647227Y-103931227D01*
X122638500Y-103936931D01*
X122624057Y-103944256D01*
X122624121Y-103944375D01*
X122616951Y-103948205D01*
X122574197Y-103978827D01*
X122572033Y-103980376D01*
X122525825Y-104010580D01*
X122518612Y-104018637D01*
X122507520Y-104026582D01*
X122039408Y-104361858D01*
X122027484Y-104369411D01*
X122025693Y-104370406D01*
X121976973Y-104406553D01*
X121976974Y-104406554D01*
X121976105Y-104407198D01*
X121926003Y-104443084D01*
X121923291Y-104446385D01*
X121913669Y-104453525D01*
X121913667Y-104453525D01*
X121216455Y-104970837D01*
X121204771Y-104978485D01*
X121155394Y-105016130D01*
X121154103Y-105017101D01*
X121104221Y-105054113D01*
X121093642Y-105063211D01*
X119008603Y-106652869D01*
X119008602Y-106652870D01*
X118999874Y-106659523D01*
X118996840Y-106660817D01*
X118947638Y-106699347D01*
X118946956Y-106699868D01*
X118946930Y-106699889D01*
X118897432Y-106737628D01*
X118887044Y-106746801D01*
X117110368Y-108138182D01*
X117101151Y-108145399D01*
X117097485Y-108147030D01*
X117049330Y-108185982D01*
X117048529Y-108186610D01*
X117048527Y-108186610D01*
X117000561Y-108224176D01*
X116999608Y-108225149D01*
X116989060Y-108234736D01*
X115918608Y-109100648D01*
X115907213Y-109109865D01*
X115901148Y-109112757D01*
X115856058Y-109151245D01*
X115854777Y-109152282D01*
X115809979Y-109188521D01*
X115804388Y-109194407D01*
X115803802Y-109193851D01*
X115794889Y-109203460D01*
X115306316Y-109620517D01*
X115306315Y-109620516D01*
X115296504Y-109628890D01*
X115284365Y-109635513D01*
X115246565Y-109671519D01*
X115243975Y-109673731D01*
X115243964Y-109673742D01*
X115206806Y-109705462D01*
X115206801Y-109705467D01*
X115206265Y-109706248D01*
X115189629Y-109725757D01*
X115032558Y-109875383D01*
X115027152Y-109880532D01*
X114998483Y-109901921D01*
X114979661Y-109925772D01*
X114973298Y-109931834D01*
X114973293Y-109931840D01*
X114957648Y-109946744D01*
X114957647Y-109946746D01*
X114942895Y-109970921D01*
X114934388Y-109983145D01*
X114931918Y-109986275D01*
X114917184Y-110001937D01*
X114908597Y-110009607D01*
X114887563Y-110041712D01*
X114887562Y-110041711D01*
X114884560Y-110046292D01*
X114857419Y-110080690D01*
X114848608Y-110101170D01*
X114842689Y-110110206D01*
X114842688Y-110110210D01*
X114836379Y-110119839D01*
X114824373Y-110156290D01*
X114823053Y-110160089D01*
X114821865Y-110163334D01*
X114805342Y-110201748D01*
X114803707Y-110212982D01*
X114799300Y-110225032D01*
X114797292Y-110227749D01*
X114795035Y-110235252D01*
X114791058Y-110243699D01*
X114791055Y-110243707D01*
X114787131Y-110265487D01*
X114782874Y-110282286D01*
X114775951Y-110303305D01*
X114775950Y-110303307D01*
X114774384Y-110331051D01*
X114772607Y-110346095D01*
X114772607Y-110346098D01*
X114772553Y-110346397D01*
X114766855Y-110367299D01*
X114763053Y-110377597D01*
X114763053Y-110377599D01*
X114759481Y-110416341D01*
X114759482Y-110416342D01*
X114758989Y-110421684D01*
X114751144Y-110465235D01*
X114752968Y-110487031D01*
X114751968Y-110497891D01*
X114751968Y-110497893D01*
X114737323Y-110656831D01*
X114732965Y-110678529D01*
X114732376Y-110681882D01*
X114730209Y-110732417D01*
X114729800Y-110738479D01*
X114725159Y-110788851D01*
X114725293Y-110792287D01*
X114726694Y-110814341D01*
X114715500Y-111075326D01*
X114714903Y-111089236D01*
X114713251Y-111094960D01*
X114712085Y-111154924D01*
X114712021Y-111156435D01*
X114712021Y-111156437D01*
X114709512Y-111214941D01*
X114710080Y-111221374D01*
X114710536Y-111234672D01*
X114703411Y-111601500D01*
X114703179Y-111613425D01*
X114702075Y-111617506D01*
X114701902Y-111679172D01*
X114701881Y-111680261D01*
X114700704Y-111740961D01*
X114700917Y-111742864D01*
X114701685Y-111756989D01*
X114700013Y-112356638D01*
X114698352Y-112952433D01*
X114697831Y-112954423D01*
X114698168Y-113018212D01*
X114698168Y-113018562D01*
X114697983Y-113085161D01*
X114698570Y-113093956D01*
X114706706Y-114628466D01*
X114706748Y-114636407D01*
X114706722Y-114636511D01*
X114707087Y-114700246D01*
X114707090Y-114700702D01*
X114707094Y-114701366D01*
X114707094Y-114701419D01*
X114707488Y-114775748D01*
X114707523Y-114776247D01*
X114716172Y-116282871D01*
X114716174Y-116283513D01*
X114717851Y-119253290D01*
X114717844Y-119254666D01*
X114690699Y-121831090D01*
X114690683Y-121832149D01*
X114614417Y-125830400D01*
X114614390Y-125831568D01*
X114560216Y-127732294D01*
X114560209Y-127732512D01*
X114493106Y-129950030D01*
X114492861Y-129958094D01*
X114492837Y-129958179D01*
X114490972Y-130020536D01*
X114490861Y-130024238D01*
X114490859Y-130024278D01*
X114488649Y-130097348D01*
X114488662Y-130097746D01*
X114438728Y-131767633D01*
X114438663Y-131769384D01*
X114391619Y-132837326D01*
X114391356Y-132841603D01*
X114329183Y-133631160D01*
X114328846Y-133634773D01*
X114229531Y-134552097D01*
X114229504Y-134552343D01*
X114093892Y-135782020D01*
X114093792Y-135782897D01*
X113942950Y-137066711D01*
X113942512Y-137070043D01*
X113795144Y-138085887D01*
X113794580Y-138089420D01*
X113632922Y-139014974D01*
X113632544Y-139017037D01*
X113438910Y-140024802D01*
X113438852Y-140025097D01*
X113395755Y-140246498D01*
X113394138Y-140252707D01*
X113381455Y-140319956D01*
X113381319Y-140320662D01*
X113368254Y-140387785D01*
X113367461Y-140394156D01*
X112999569Y-142344892D01*
X112999471Y-142345407D01*
X112718688Y-143800481D01*
X112718120Y-143803254D01*
X112595044Y-144371056D01*
X112594523Y-144373355D01*
X112476072Y-144873683D01*
X112475197Y-144877151D01*
X112228880Y-145798217D01*
X112228042Y-145801203D01*
X112165616Y-146013242D01*
X111939256Y-146782100D01*
X111873395Y-147003618D01*
X111746930Y-147428973D01*
X111746929Y-147428972D01*
X111743998Y-147438828D01*
X111742680Y-147441026D01*
X111725234Y-147501943D01*
X111725047Y-147502576D01*
X111706642Y-147564480D01*
X111704278Y-147575124D01*
X111210104Y-149300791D01*
X111210044Y-149301002D01*
X110753124Y-150885987D01*
X110752236Y-150888928D01*
X110580719Y-151432879D01*
X110579700Y-151435969D01*
X110433622Y-151860104D01*
X110432124Y-151864217D01*
X110303655Y-152198418D01*
X110301734Y-152203126D01*
X110182274Y-152479492D01*
X110179828Y-152484803D01*
X109912081Y-153031857D01*
X109911554Y-153032919D01*
X109756498Y-153342202D01*
X109756498Y-153342203D01*
X109750078Y-153355009D01*
X109746023Y-153359807D01*
X109720624Y-153413754D01*
X109719925Y-153415151D01*
X109719910Y-153415183D01*
X109693831Y-153467203D01*
X109691429Y-153474130D01*
X109686464Y-153486315D01*
X109361186Y-154177236D01*
X109356644Y-154186882D01*
X109343519Y-154205603D01*
X109328684Y-154246272D01*
X109326298Y-154251342D01*
X109326296Y-154251347D01*
X109310250Y-154285432D01*
X109308088Y-154297436D01*
X109302547Y-154317937D01*
X109150341Y-154735253D01*
X109149261Y-154738103D01*
X109014643Y-155080795D01*
X109012407Y-155086119D01*
X108908181Y-155318958D01*
X108903550Y-155328242D01*
X108829425Y-155462463D01*
X108820205Y-155476748D01*
X108777528Y-155533853D01*
X108762328Y-155550719D01*
X108736751Y-155574339D01*
X108720276Y-155587161D01*
X108668497Y-155620868D01*
X108659188Y-155626365D01*
X108550881Y-155684094D01*
X108549729Y-155684700D01*
X108537369Y-155691122D01*
X108528046Y-155693558D01*
X108479260Y-155721316D01*
X108477140Y-155722418D01*
X108477136Y-155722418D01*
X108477070Y-155722455D01*
X108429324Y-155747225D01*
X108422665Y-155751874D01*
X108422498Y-155751635D01*
X108409995Y-155760726D01*
X108228020Y-155864268D01*
X108227720Y-155864438D01*
X108218467Y-155869668D01*
X108197646Y-155877117D01*
X108163509Y-155900737D01*
X108158594Y-155903516D01*
X108129833Y-155910217D01*
X108101794Y-155919499D01*
X108096186Y-155918057D01*
X108090547Y-155919372D01*
X108062723Y-155909458D01*
X108034123Y-155902109D01*
X108027014Y-155897540D01*
X107997498Y-155877117D01*
X107997497Y-155877116D01*
X107986675Y-155873245D01*
X107967119Y-155864266D01*
X107785155Y-155760730D01*
X107773082Y-155753861D01*
X107765819Y-155747224D01*
X107715956Y-155721356D01*
X107713857Y-155720162D01*
X107713851Y-155720159D01*
X107667096Y-155693556D01*
X107659573Y-155690496D01*
X107659718Y-155690137D01*
X107644259Y-155684093D01*
X107640678Y-155682184D01*
X107535942Y-155626358D01*
X107526655Y-155620875D01*
X107474860Y-155587157D01*
X107458391Y-155574339D01*
X107448516Y-155565219D01*
X107432810Y-155550715D01*
X107417614Y-155533852D01*
X107374933Y-155476741D01*
X107365714Y-155462458D01*
X107336748Y-155410010D01*
X107291597Y-155328255D01*
X107286966Y-155318973D01*
X107212424Y-155152446D01*
X107182718Y-155086082D01*
X107180499Y-155080795D01*
X107045875Y-154738089D01*
X107044808Y-154735272D01*
X106888946Y-154307930D01*
X106884894Y-154285431D01*
X106866456Y-154246268D01*
X106851625Y-154205603D01*
X106844617Y-154195609D01*
X106833961Y-154177245D01*
X106502577Y-153473351D01*
X106501312Y-153467202D01*
X106474567Y-153413856D01*
X106449122Y-153359807D01*
X106449120Y-153359805D01*
X106445152Y-153353626D01*
X106438648Y-153342209D01*
X106283526Y-153032795D01*
X106283067Y-153031868D01*
X106061482Y-152579130D01*
X106015311Y-152484795D01*
X106012869Y-152479492D01*
X105920688Y-152266234D01*
X105893397Y-152203098D01*
X105891495Y-152198437D01*
X105763001Y-151864170D01*
X105761517Y-151860093D01*
X105615440Y-151435959D01*
X105614421Y-151432869D01*
X105442908Y-150888929D01*
X105442020Y-150885988D01*
X105082865Y-149640135D01*
X104985142Y-149301147D01*
X104985082Y-149300936D01*
X104490868Y-147575133D01*
X104488037Y-147565246D01*
X104487968Y-147562683D01*
X104469924Y-147501995D01*
X104452465Y-147441026D01*
X104452463Y-147441024D01*
X104451947Y-147439219D01*
X104448210Y-147428962D01*
X104255888Y-146782100D01*
X104255794Y-146781783D01*
X104064952Y-146133564D01*
X103967092Y-145801171D01*
X103966263Y-145798217D01*
X103800177Y-145177164D01*
X103719943Y-144877142D01*
X103719071Y-144873683D01*
X103652753Y-144593559D01*
X103600607Y-144373298D01*
X103600107Y-144371094D01*
X103477013Y-143803207D01*
X103476465Y-143800531D01*
X103195635Y-142345209D01*
X102825957Y-140385007D01*
X102826061Y-140383526D01*
X102813770Y-140320383D01*
X102801811Y-140256970D01*
X102801809Y-140256967D01*
X102801007Y-140252711D01*
X102799383Y-140246474D01*
X102793266Y-140215050D01*
X102756302Y-140025147D01*
X102562600Y-139017037D01*
X102562229Y-139015018D01*
X102400556Y-138089376D01*
X102400008Y-138085943D01*
X102252625Y-137069997D01*
X102252198Y-137066752D01*
X102101299Y-135782442D01*
X102101238Y-135781904D01*
X101965660Y-134552520D01*
X101965633Y-134552275D01*
X101958720Y-134488425D01*
X101866293Y-133634743D01*
X101865963Y-133631198D01*
X101803785Y-132841587D01*
X101803524Y-132837328D01*
X101803524Y-132837326D01*
X101756478Y-131769337D01*
X101756415Y-131767635D01*
X101755578Y-131739642D01*
X101706244Y-130089812D01*
X101706265Y-130089724D01*
X101704283Y-130024241D01*
X101702308Y-129958179D01*
X101702307Y-129958176D01*
X101702066Y-129950110D01*
X101702027Y-129949710D01*
X101634935Y-127732528D01*
X101634928Y-127732310D01*
X101580753Y-125831568D01*
X101580726Y-125830400D01*
X101579937Y-125789041D01*
X101504456Y-121831943D01*
X101504446Y-121831268D01*
X101477298Y-119254597D01*
X101477292Y-119253290D01*
X101478970Y-116283188D01*
X101487667Y-114768182D01*
X101487697Y-114768074D01*
X101488050Y-114701377D01*
X101488423Y-114636511D01*
X101488468Y-114628689D01*
X101488438Y-114628200D01*
X101496626Y-113084148D01*
X101497154Y-113082156D01*
X101496975Y-113018218D01*
X101497314Y-112954423D01*
X101497313Y-112954419D01*
X101497329Y-112951414D01*
X101496764Y-112942632D01*
X101493425Y-111745059D01*
X101494441Y-111740953D01*
X101493242Y-111679226D01*
X101493070Y-111617506D01*
X101493069Y-111617501D01*
X101492816Y-111615616D01*
X101491732Y-111601495D01*
X101486436Y-111328861D01*
X101484337Y-111220760D01*
X101485632Y-111214942D01*
X101483059Y-111154964D01*
X101481894Y-111094960D01*
X101481891Y-111094952D01*
X101480927Y-111088578D01*
X101479643Y-111075322D01*
X101467882Y-110801114D01*
X101469986Y-110788852D01*
X101465065Y-110735456D01*
X101462768Y-110681882D01*
X101462768Y-110681880D01*
X101462169Y-110678467D01*
X101457820Y-110656829D01*
X101442175Y-110487036D01*
X101444001Y-110465236D01*
X101436152Y-110421674D01*
X101432091Y-110377595D01*
X101428288Y-110367295D01*
X101422587Y-110346383D01*
X101422536Y-110346098D01*
X101422533Y-110346086D01*
X101420759Y-110331054D01*
X101419194Y-110303306D01*
X101412269Y-110282281D01*
X101410976Y-110278107D01*
X101409161Y-110271863D01*
X101404088Y-110243703D01*
X101395953Y-110226428D01*
X101393229Y-110217054D01*
X101393241Y-110212419D01*
X101392355Y-110209474D01*
X101392014Y-110209571D01*
X101389804Y-110201748D01*
X101387826Y-110197151D01*
X101374633Y-110166484D01*
X101370769Y-110156284D01*
X101358766Y-110119841D01*
X101358765Y-110119839D01*
X101352457Y-110110211D01*
X101352456Y-110110210D01*
X101352453Y-110110206D01*
X101346540Y-110101180D01*
X101337726Y-110080690D01*
X101310573Y-110046279D01*
X101286547Y-110009606D01*
X101277961Y-110001937D01*
X101263218Y-109986267D01*
X101260749Y-109983138D01*
X101252246Y-109970918D01*
X101237496Y-109946744D01*
X101215488Y-109925779D01*
X101196662Y-109901921D01*
X101167984Y-109880526D01*
X101129496Y-109843862D01*
X101005516Y-109725757D01*
X100988876Y-109706242D01*
X100988343Y-109705468D01*
X100988341Y-109705466D01*
X100988339Y-109705463D01*
X100951165Y-109673730D01*
X100946157Y-109669212D01*
X100910783Y-109635515D01*
X100910778Y-109635511D01*
X100909948Y-109635058D01*
X100888824Y-109620514D01*
X100400266Y-109203470D01*
X100400266Y-109203469D01*
X100389116Y-109193951D01*
X100385167Y-109188522D01*
X100339088Y-109151247D01*
X100293997Y-109112757D01*
X100293995Y-109112755D01*
X100287177Y-109108330D01*
X100287626Y-109107637D01*
X100276533Y-109100646D01*
X100204982Y-109042767D01*
X99455030Y-108436114D01*
X99206093Y-108234743D01*
X99206093Y-108234742D01*
X99196995Y-108227383D01*
X99194586Y-108224178D01*
X99145845Y-108186006D01*
X99145048Y-108185362D01*
X99097658Y-108147028D01*
X99096496Y-108146317D01*
X99084778Y-108138183D01*
X97308104Y-106746804D01*
X97299459Y-106740034D01*
X97297443Y-106737423D01*
X97247618Y-106699435D01*
X97198305Y-106660817D01*
X97198304Y-106660816D01*
X97198039Y-106660609D01*
X97186536Y-106652866D01*
X97109627Y-106594230D01*
X95531864Y-105391324D01*
X95101511Y-105063218D01*
X95101510Y-105063217D01*
X95092755Y-105056542D01*
X95090692Y-105053941D01*
X95040405Y-105016629D01*
X95039799Y-105016167D01*
X95039753Y-105016132D01*
X94990372Y-104978484D01*
X94978686Y-104970836D01*
X94564895Y-104663815D01*
X94564892Y-104663813D01*
X94499887Y-104615581D01*
X101633972Y-104615581D01*
X101674785Y-104656394D01*
X102137514Y-105062197D01*
X102625774Y-105436852D01*
X103137486Y-105778767D01*
X103137511Y-105778783D01*
X103670496Y-106086502D01*
X104222472Y-106358706D01*
X104791067Y-106594226D01*
X104791078Y-106594230D01*
X105373852Y-106792056D01*
X105373860Y-106792058D01*
X105968345Y-106951350D01*
X105968363Y-106951354D01*
X106571952Y-107071415D01*
X106571963Y-107071417D01*
X107182139Y-107151748D01*
X107796287Y-107192001D01*
X108411713Y-107192001D01*
X109025860Y-107151748D01*
X109636036Y-107071417D01*
X109636047Y-107071415D01*
X110239636Y-106951354D01*
X110239654Y-106951350D01*
X110834139Y-106792058D01*
X110834147Y-106792056D01*
X111416921Y-106594230D01*
X111416932Y-106594226D01*
X111985527Y-106358706D01*
X112537503Y-106086502D01*
X113070488Y-105778783D01*
X113070513Y-105778767D01*
X113582225Y-105436852D01*
X114070485Y-105062197D01*
X114533207Y-104656401D01*
X114574027Y-104615580D01*
X108104000Y-98145554D01*
X101633972Y-104615581D01*
X94499887Y-104615581D01*
X94271855Y-104446388D01*
X94269142Y-104443084D01*
X94218975Y-104407153D01*
X94200552Y-104393483D01*
X94169454Y-104370409D01*
X94167682Y-104369424D01*
X94155741Y-104361862D01*
X93704761Y-104038857D01*
X93676534Y-104018640D01*
X93669320Y-104010580D01*
X93623099Y-103980369D01*
X93612194Y-103972558D01*
X93578196Y-103948207D01*
X93571025Y-103944376D01*
X93571088Y-103944256D01*
X93556644Y-103936931D01*
X93416116Y-103845077D01*
X93401520Y-103831172D01*
X93361162Y-103809157D01*
X93356278Y-103805965D01*
X93322858Y-103784121D01*
X93322681Y-103784005D01*
X93322680Y-103784004D01*
X93322678Y-103784003D01*
X93314291Y-103781251D01*
X93293581Y-103772293D01*
X93191140Y-103716413D01*
X93191140Y-103716412D01*
X93179570Y-103710101D01*
X93169945Y-103701810D01*
X93121897Y-103678642D01*
X93119165Y-103677152D01*
X93119151Y-103677145D01*
X93075039Y-103653083D01*
X93073227Y-103652384D01*
X93050822Y-103644371D01*
X92994703Y-103617311D01*
X92974107Y-103604778D01*
X92970214Y-103601855D01*
X92970213Y-103601854D01*
X92928477Y-103585071D01*
X92928477Y-103585070D01*
X92924600Y-103583511D01*
X92880377Y-103562188D01*
X92863699Y-103559023D01*
X92852457Y-103554503D01*
X92852454Y-103554502D01*
X92831696Y-103546155D01*
X92812965Y-103536710D01*
X92802001Y-103529962D01*
X92766526Y-103519379D01*
X92761029Y-103517739D01*
X92721371Y-103501792D01*
X92698143Y-103498978D01*
X92688052Y-103495968D01*
X92688050Y-103495966D01*
X92679211Y-103493330D01*
X92664024Y-103487696D01*
X92641194Y-103477483D01*
X92626084Y-103475061D01*
X92616590Y-103473540D01*
X92600767Y-103469929D01*
X92576889Y-103462806D01*
X92551881Y-103462102D01*
X92535749Y-103460588D01*
X92530196Y-103459698D01*
X92521395Y-103457959D01*
X92479271Y-103448039D01*
X92472669Y-103448240D01*
X92472222Y-103448252D01*
X92460682Y-103448561D01*
X92442780Y-103445694D01*
X92399726Y-103450141D01*
X92395077Y-103450321D01*
X92395049Y-103450322D01*
X92361132Y-103451637D01*
X92360108Y-103451672D01*
X92296937Y-103453598D01*
X92294324Y-103454024D01*
X92292948Y-103454247D01*
X92251197Y-103467187D01*
X92229470Y-103471836D01*
X92219847Y-103473006D01*
X92187846Y-103485893D01*
X92181048Y-103488402D01*
X92179129Y-103489047D01*
X92170747Y-103491570D01*
X92169699Y-103492217D01*
X92162347Y-103494690D01*
X92161890Y-103494707D01*
X92159546Y-103495594D01*
X92148632Y-103498978D01*
X92134574Y-103503335D01*
X92134572Y-103503336D01*
X92126377Y-103508501D01*
X92123457Y-103510285D01*
X92115336Y-103515094D01*
X92097604Y-103522236D01*
X92076544Y-103538066D01*
X92072409Y-103540516D01*
X92062016Y-103548464D01*
X92052813Y-103554863D01*
X92023088Y-103573597D01*
X92016499Y-103580717D01*
X92001252Y-103594657D01*
X92000589Y-103595168D01*
X91970456Y-103617823D01*
X91969268Y-103619337D01*
X91967579Y-103620642D01*
X91928873Y-103670914D01*
X91928500Y-103671397D01*
X91889203Y-103721579D01*
X91888384Y-103723501D01*
X91887109Y-103725158D01*
X91887109Y-103725159D01*
X91887107Y-103725162D01*
X91864786Y-103778798D01*
X91854182Y-103798869D01*
X91849559Y-103805959D01*
X91849557Y-103805964D01*
X91836690Y-103845317D01*
X91836691Y-103845318D01*
X91835178Y-103849946D01*
X91817406Y-103892656D01*
X91814780Y-103912345D01*
X91811240Y-103923175D01*
X91811240Y-103923176D01*
X91808608Y-103931227D01*
X91806367Y-103972563D01*
X91805786Y-103979579D01*
X91805631Y-103980963D01*
X91799990Y-104023284D01*
X91800488Y-104027122D01*
X91799224Y-104038475D01*
X91799063Y-104038857D01*
X91798926Y-104040932D01*
X91785401Y-104143648D01*
X91785252Y-104144743D01*
X91745073Y-104430208D01*
X91738821Y-104455292D01*
X91738685Y-104455664D01*
X91734391Y-104504871D01*
X91733651Y-104511370D01*
X91726763Y-104560316D01*
X91726763Y-104560318D01*
X91726810Y-104560702D01*
X91727261Y-104586565D01*
X91720080Y-104668849D01*
X91717826Y-104694681D01*
X91713769Y-104708102D01*
X91712115Y-104760093D01*
X91711818Y-104763507D01*
X91711817Y-104763536D01*
X91707589Y-104811991D01*
X91707588Y-104811998D01*
X91707588Y-104812000D01*
X91707793Y-104813161D01*
X91709617Y-104838650D01*
X91703844Y-105020232D01*
X91703804Y-105021348D01*
X91703804Y-105021349D01*
X91703375Y-105031859D01*
X91690817Y-105077877D01*
X91691459Y-105078120D01*
X91688908Y-105084871D01*
X91688771Y-105085376D01*
X91688591Y-105085710D01*
X91685718Y-105093318D01*
X91684946Y-105093026D01*
X91679365Y-105108023D01*
X91666610Y-105132440D01*
X91663837Y-105140021D01*
X91661301Y-105147716D01*
X91650877Y-105202626D01*
X91650508Y-105204573D01*
X91637899Y-105261058D01*
X91638242Y-105269188D01*
X91636724Y-105277186D01*
X91636724Y-105277189D01*
X91640867Y-105332928D01*
X91641098Y-105336892D01*
X91643934Y-105404107D01*
X91643517Y-105420751D01*
X91641319Y-105444512D01*
X91641319Y-105444513D01*
X91645718Y-105470205D01*
X91647053Y-105478004D01*
X91648485Y-105511937D01*
X91658119Y-105542652D01*
X91659529Y-105550884D01*
X91659530Y-105550889D01*
X91688760Y-105721633D01*
X91689577Y-105736221D01*
X91690054Y-105736187D01*
X91690646Y-105744292D01*
X91701811Y-105798297D01*
X91702601Y-105802477D01*
X91711916Y-105856891D01*
X91714321Y-105864652D01*
X91713863Y-105864793D01*
X91718428Y-105878681D01*
X91798929Y-106268084D01*
X91798929Y-106268085D01*
X91801651Y-106281256D01*
X91801452Y-106286816D01*
X91814958Y-106345625D01*
X91815238Y-106346978D01*
X91815250Y-106347032D01*
X91827204Y-106404853D01*
X91828976Y-106409946D01*
X91832714Y-106422933D01*
X91994140Y-107125782D01*
X91994161Y-107125874D01*
X92112052Y-107640960D01*
X92113183Y-107646471D01*
X92149651Y-107847306D01*
X92150720Y-107854337D01*
X92173406Y-108038955D01*
X92174178Y-108047900D01*
X92183230Y-108229367D01*
X92183338Y-108238910D01*
X92178021Y-108434756D01*
X92177472Y-108443520D01*
X92155212Y-108669999D01*
X92154299Y-108677150D01*
X92154299Y-108677153D01*
X92121035Y-108888459D01*
X92118072Y-108902173D01*
X92117401Y-108904601D01*
X92109061Y-108964395D01*
X92108742Y-108966543D01*
X92099343Y-109026259D01*
X92099279Y-109028784D01*
X92098130Y-109042767D01*
X92056482Y-109341369D01*
X92056483Y-109341370D01*
X92054624Y-109354701D01*
X92050607Y-109365546D01*
X92045544Y-109419809D01*
X92045152Y-109422617D01*
X92045152Y-109422618D01*
X92045152Y-109422620D01*
X92038017Y-109473773D01*
X92037955Y-109481901D01*
X92037935Y-109481900D01*
X92038188Y-109498647D01*
X91981129Y-110110211D01*
X91971902Y-110209111D01*
X91970477Y-110213169D01*
X91965787Y-110274651D01*
X91965691Y-110275685D01*
X91965689Y-110275703D01*
X91960059Y-110336052D01*
X91960138Y-110338142D01*
X91959868Y-110352257D01*
X91896056Y-111188932D01*
X91896053Y-111188976D01*
X91818193Y-112205016D01*
X91818013Y-112207128D01*
X91732215Y-113121398D01*
X91731792Y-113125255D01*
X91685794Y-113491723D01*
X91685041Y-113496847D01*
X91638190Y-113775400D01*
X91636041Y-113785559D01*
X91623238Y-113835616D01*
X91587555Y-113895687D01*
X91529374Y-113926076D01*
X91481604Y-113936431D01*
X91464143Y-113938931D01*
X91267456Y-113952922D01*
X91256857Y-113953221D01*
X90836517Y-113947101D01*
X90835827Y-113947089D01*
X90487737Y-113940083D01*
X90487737Y-113940082D01*
X90474827Y-113939822D01*
X90469893Y-113938501D01*
X90409060Y-113938501D01*
X90407816Y-113938476D01*
X90407815Y-113938476D01*
X90348194Y-113937276D01*
X90344007Y-113937742D01*
X90330305Y-113938501D01*
X89310414Y-113938501D01*
X89307876Y-113938475D01*
X88514382Y-113922230D01*
X88510839Y-113922107D01*
X87488474Y-113871909D01*
X87487024Y-113871829D01*
X87267105Y-113858448D01*
X87261962Y-113857807D01*
X87192643Y-113853916D01*
X87192063Y-113853882D01*
X87122681Y-113849660D01*
X87117489Y-113849696D01*
X86996414Y-113842900D01*
X86996414Y-113842899D01*
X86983632Y-113842181D01*
X86969893Y-113838501D01*
X86918038Y-113838501D01*
X86914563Y-113838306D01*
X86914558Y-113838306D01*
X86866265Y-113835594D01*
X86865037Y-113835850D01*
X86864868Y-113835886D01*
X86839537Y-113838501D01*
X85670836Y-113838501D01*
X85603797Y-113818816D01*
X85558042Y-113766012D01*
X85549897Y-113741883D01*
X85539209Y-113694678D01*
X85487562Y-113466566D01*
X85484501Y-113439184D01*
X85484501Y-113236992D01*
X85486301Y-113220456D01*
X85486257Y-113220453D01*
X85486955Y-113212354D01*
X85484626Y-113160535D01*
X85484501Y-113157752D01*
X85484501Y-113103109D01*
X85481550Y-113092096D01*
X85444626Y-112270536D01*
X85444501Y-112264969D01*
X85444501Y-106177199D01*
X85447424Y-106150435D01*
X85640314Y-105277838D01*
X85654501Y-105224893D01*
X85654501Y-105213661D01*
X85656926Y-105202691D01*
X85654622Y-105150651D01*
X85654501Y-105145167D01*
X85654501Y-105074602D01*
X85656451Y-105052696D01*
X85660191Y-105031858D01*
X85784041Y-104341833D01*
X85785203Y-104336138D01*
X86137136Y-102795241D01*
X86145654Y-102770421D01*
X86657469Y-101673676D01*
X86668255Y-101658752D01*
X86685235Y-101614178D01*
X86705411Y-101570945D01*
X86706567Y-101564398D01*
X86712801Y-101541817D01*
X86993930Y-100803852D01*
X86997460Y-100794586D01*
X87010393Y-100772187D01*
X87020823Y-100733257D01*
X87035169Y-100695602D01*
X87036795Y-100679743D01*
X87040373Y-100660298D01*
X87040373Y-100660297D01*
X87044501Y-100644893D01*
X87044501Y-100610934D01*
X87045148Y-100598285D01*
X87046578Y-100584336D01*
X87048612Y-100564505D01*
X87046076Y-100548757D01*
X87044501Y-100529049D01*
X87044501Y-100267422D01*
X87046222Y-100260151D01*
X87044501Y-100201631D01*
X87044501Y-100143109D01*
X87044501Y-100143107D01*
X87043533Y-100135757D01*
X87042348Y-100128426D01*
X87042348Y-100128423D01*
X87038699Y-100116250D01*
X87026061Y-100074085D01*
X87026060Y-100074084D01*
X87025540Y-100072348D01*
X87010393Y-100015815D01*
X87006656Y-100009343D01*
X87004512Y-100002188D01*
X86974720Y-99953923D01*
X86972862Y-99950810D01*
X86944501Y-99901687D01*
X86939216Y-99896402D01*
X86935293Y-99890046D01*
X86892715Y-99849901D01*
X86891411Y-99848597D01*
X86851317Y-99808502D01*
X86844867Y-99803553D01*
X86845288Y-99803003D01*
X86834309Y-99794833D01*
X86549999Y-99526768D01*
X86547481Y-99524394D01*
X86511723Y-99486707D01*
X86499682Y-99479327D01*
X86489408Y-99469640D01*
X86489406Y-99469639D01*
X86489405Y-99469638D01*
X86446708Y-99446633D01*
X86440727Y-99443193D01*
X84347630Y-98160326D01*
X84347630Y-98160325D01*
X84335302Y-98152769D01*
X84329968Y-98147471D01*
X84279234Y-98118406D01*
X84277686Y-98117457D01*
X84229363Y-98087840D01*
X84221944Y-98084536D01*
X84222219Y-98083916D01*
X84209607Y-98078517D01*
X81386853Y-96461415D01*
X81379246Y-96457057D01*
X81378655Y-96456474D01*
X81322191Y-96424371D01*
X81321956Y-96424236D01*
X81321955Y-96424235D01*
X81260495Y-96389026D01*
X81257213Y-96387427D01*
X78905398Y-95050307D01*
X78896836Y-95045439D01*
X78895342Y-95043988D01*
X78839620Y-95012909D01*
X78839263Y-95012706D01*
X78839261Y-95012704D01*
X78781546Y-94979891D01*
X78773486Y-94976022D01*
X53821032Y-81058934D01*
X53111476Y-80663183D01*
X53062516Y-80613336D01*
X53061827Y-80612029D01*
X52678451Y-79873673D01*
X52675177Y-79860263D01*
X52669524Y-79851467D01*
X52664501Y-79816532D01*
X52664501Y-79804156D01*
X56164001Y-79804156D01*
X56164001Y-80502001D01*
X57188723Y-80502001D01*
X57144668Y-80578307D01*
X57114001Y-80692757D01*
X57114001Y-80811245D01*
X57144668Y-80925695D01*
X57188723Y-81002001D01*
X56164001Y-81002001D01*
X56164001Y-81699845D01*
X56170402Y-81759373D01*
X56170404Y-81759380D01*
X56220646Y-81894087D01*
X56220650Y-81894094D01*
X56306810Y-82009188D01*
X56306813Y-82009191D01*
X56421907Y-82095351D01*
X56421914Y-82095355D01*
X56556621Y-82145597D01*
X56556628Y-82145599D01*
X56616156Y-82152000D01*
X56616173Y-82152001D01*
X57314001Y-82152001D01*
X57314001Y-81127278D01*
X57390307Y-81171334D01*
X57504757Y-81202001D01*
X57623245Y-81202001D01*
X57737695Y-81171334D01*
X57814001Y-81127278D01*
X57814001Y-82152001D01*
X58511829Y-82152001D01*
X58511845Y-82152000D01*
X58571373Y-82145599D01*
X58571380Y-82145597D01*
X58706087Y-82095355D01*
X58706094Y-82095351D01*
X58821188Y-82009191D01*
X58821191Y-82009188D01*
X58907351Y-81894094D01*
X58907355Y-81894087D01*
X58937214Y-81814032D01*
X58979085Y-81758098D01*
X59044549Y-81733681D01*
X59112822Y-81748532D01*
X59141077Y-81769684D01*
X59191637Y-81820244D01*
X59191642Y-81820248D01*
X59347193Y-81933261D01*
X59369979Y-81949816D01*
X59486502Y-82009188D01*
X59566394Y-82049896D01*
X59566397Y-82049897D01*
X59671222Y-82083956D01*
X59776050Y-82118016D01*
X59993779Y-82152501D01*
X59993780Y-82152501D01*
X60214222Y-82152501D01*
X60214223Y-82152501D01*
X60431952Y-82118016D01*
X60641607Y-82049896D01*
X60838023Y-81949816D01*
X61016366Y-81820243D01*
X61172243Y-81664366D01*
X61301816Y-81486023D01*
X61335353Y-81420205D01*
X61345801Y-81409141D01*
X61352124Y-81395298D01*
X61369304Y-81384256D01*
X61383327Y-81369410D01*
X61399006Y-81365168D01*
X61410902Y-81357524D01*
X61445837Y-81352501D01*
X61573904Y-81352501D01*
X61640943Y-81372186D01*
X61661585Y-81388820D01*
X68269140Y-87996375D01*
X68269150Y-87996386D01*
X68273480Y-88000716D01*
X68273481Y-88000717D01*
X68385285Y-88112521D01*
X68472096Y-88162640D01*
X68472098Y-88162642D01*
X68522214Y-88191577D01*
X68522216Y-88191578D01*
X68674943Y-88232501D01*
X68674944Y-88232501D01*
X76307553Y-88232501D01*
X76374592Y-88252186D01*
X76420347Y-88304990D01*
X76430291Y-88374148D01*
X76417039Y-88414715D01*
X74993023Y-91092900D01*
X86410601Y-97163735D01*
X86410602Y-97163734D01*
X86410603Y-97163735D01*
X87457857Y-95194136D01*
X87967161Y-94236276D01*
X87967161Y-94236275D01*
X83324454Y-91767704D01*
X77114826Y-88465986D01*
X77064876Y-88417133D01*
X77049266Y-88349029D01*
X77072955Y-88283298D01*
X77128420Y-88240808D01*
X77173041Y-88232501D01*
X83543904Y-88232501D01*
X83610943Y-88252186D01*
X83631585Y-88268820D01*
X86689140Y-91326375D01*
X86689150Y-91326386D01*
X86693480Y-91330716D01*
X86693481Y-91330717D01*
X86805285Y-91442521D01*
X86892096Y-91492640D01*
X86892098Y-91492642D01*
X86930152Y-91514612D01*
X86942216Y-91521578D01*
X87094944Y-91562501D01*
X97634903Y-91562501D01*
X97701942Y-91582186D01*
X97747697Y-91634990D01*
X97757641Y-91704148D01*
X97728616Y-91767704D01*
X97722584Y-91774182D01*
X94935286Y-94561479D01*
X94823481Y-94673283D01*
X94823475Y-94673291D01*
X94819887Y-94679506D01*
X94769318Y-94727719D01*
X94712503Y-94741501D01*
X92706129Y-94741501D01*
X92706123Y-94741502D01*
X92646516Y-94747909D01*
X92511671Y-94798203D01*
X92511664Y-94798207D01*
X92396455Y-94884453D01*
X92396452Y-94884456D01*
X92310206Y-94999665D01*
X92310202Y-94999672D01*
X92259908Y-95134518D01*
X92253501Y-95194117D01*
X92253501Y-95194124D01*
X92253500Y-95194136D01*
X92253500Y-100389871D01*
X92253501Y-100389877D01*
X92259908Y-100449484D01*
X92310202Y-100584329D01*
X92310206Y-100584336D01*
X92396452Y-100699545D01*
X92396455Y-100699548D01*
X92511664Y-100785794D01*
X92511671Y-100785798D01*
X92646517Y-100836092D01*
X92646516Y-100836092D01*
X92653444Y-100836836D01*
X92706127Y-100842501D01*
X97901872Y-100842500D01*
X97961483Y-100836092D01*
X98096331Y-100785797D01*
X98211546Y-100699547D01*
X98297796Y-100584332D01*
X98348091Y-100449484D01*
X98354500Y-100389874D01*
X98354499Y-97484288D01*
X98704000Y-97484288D01*
X98704000Y-98099713D01*
X98744252Y-98713861D01*
X98824583Y-99324037D01*
X98824585Y-99324048D01*
X98944646Y-99927637D01*
X98944650Y-99927655D01*
X99103942Y-100522140D01*
X99103944Y-100522148D01*
X99301770Y-101104922D01*
X99301774Y-101104933D01*
X99537294Y-101673528D01*
X99809498Y-102225504D01*
X100117217Y-102758489D01*
X100117233Y-102758514D01*
X100459148Y-103270226D01*
X100833803Y-103758486D01*
X101239606Y-104221215D01*
X101280419Y-104262028D01*
X107750446Y-97792001D01*
X107750446Y-97792000D01*
X101280419Y-91321973D01*
X101280418Y-91321973D01*
X101239628Y-91362763D01*
X101239601Y-91362792D01*
X100833803Y-91825515D01*
X100459148Y-92313775D01*
X100117233Y-92825487D01*
X100117217Y-92825512D01*
X99809498Y-93358497D01*
X99537294Y-93910473D01*
X99301774Y-94479068D01*
X99301770Y-94479079D01*
X99103944Y-95061853D01*
X99103942Y-95061861D01*
X98944650Y-95656346D01*
X98944646Y-95656364D01*
X98824585Y-96259953D01*
X98824583Y-96259964D01*
X98744252Y-96870140D01*
X98704000Y-97484288D01*
X98354499Y-97484288D01*
X98354499Y-95194129D01*
X98348091Y-95134518D01*
X98316682Y-95050307D01*
X98297797Y-94999672D01*
X98297793Y-94999665D01*
X98211547Y-94884456D01*
X98211544Y-94884453D01*
X98096335Y-94798207D01*
X98096328Y-94798203D01*
X97961482Y-94747909D01*
X97961483Y-94747909D01*
X97901883Y-94741502D01*
X97901881Y-94741501D01*
X97901873Y-94741501D01*
X97901865Y-94741501D01*
X96753096Y-94741501D01*
X96686057Y-94721816D01*
X96640302Y-94669012D01*
X96630358Y-94599854D01*
X96659383Y-94536298D01*
X96665415Y-94529820D01*
X101967417Y-89227820D01*
X102028740Y-89194335D01*
X102055098Y-89191501D01*
X103759194Y-89191501D01*
X103826233Y-89211186D01*
X103871988Y-89263990D01*
X103881932Y-89333148D01*
X103852907Y-89396704D01*
X103814038Y-89426713D01*
X103670496Y-89497499D01*
X103137511Y-89805218D01*
X103137486Y-89805234D01*
X102625774Y-90147149D01*
X102137514Y-90521804D01*
X101674791Y-90927602D01*
X101674762Y-90927629D01*
X101633972Y-90968418D01*
X101633972Y-90968419D01*
X108280777Y-97615224D01*
X114927579Y-104262028D01*
X114927580Y-104262028D01*
X114968400Y-104221208D01*
X115374196Y-103758486D01*
X115748851Y-103270226D01*
X116090766Y-102758514D01*
X116090782Y-102758489D01*
X116398501Y-102225504D01*
X116670705Y-101673528D01*
X116906225Y-101104933D01*
X116906229Y-101104922D01*
X117104055Y-100522148D01*
X117104057Y-100522140D01*
X117263349Y-99927655D01*
X117263353Y-99927637D01*
X117383414Y-99324048D01*
X117383416Y-99324037D01*
X117463747Y-98713861D01*
X117504000Y-98099713D01*
X117504000Y-97484288D01*
X117463747Y-96870140D01*
X117383416Y-96259964D01*
X117383414Y-96259953D01*
X117263353Y-95656364D01*
X117263349Y-95656346D01*
X117104057Y-95061861D01*
X117104055Y-95061854D01*
X117052613Y-94910310D01*
X117049703Y-94840501D01*
X117084998Y-94780201D01*
X117147290Y-94748554D01*
X117216802Y-94755610D01*
X117257713Y-94782770D01*
X117817181Y-95342238D01*
X117850666Y-95403561D01*
X117853500Y-95429919D01*
X117853500Y-100389871D01*
X117853501Y-100389877D01*
X117859908Y-100449484D01*
X117910202Y-100584329D01*
X117910206Y-100584336D01*
X117996452Y-100699545D01*
X117996455Y-100699548D01*
X118111664Y-100785794D01*
X118111671Y-100785798D01*
X118246517Y-100836092D01*
X118246516Y-100836092D01*
X118253444Y-100836836D01*
X118306127Y-100842501D01*
X123501872Y-100842500D01*
X123561483Y-100836092D01*
X123696331Y-100785797D01*
X123811546Y-100699547D01*
X123897796Y-100584332D01*
X123948091Y-100449484D01*
X123954500Y-100389874D01*
X123954499Y-95194129D01*
X123948091Y-95134518D01*
X123916682Y-95050307D01*
X123897797Y-94999672D01*
X123897793Y-94999665D01*
X123811547Y-94884456D01*
X123811544Y-94884453D01*
X123696335Y-94798207D01*
X123696328Y-94798203D01*
X123561482Y-94747909D01*
X123561483Y-94747909D01*
X123501883Y-94741502D01*
X123501881Y-94741501D01*
X123501873Y-94741501D01*
X123501865Y-94741501D01*
X120534098Y-94741501D01*
X120467059Y-94721816D01*
X120446417Y-94705182D01*
X115681811Y-89940576D01*
X115671199Y-89921142D01*
X115656698Y-89904407D01*
X115654780Y-89891074D01*
X115648326Y-89879253D01*
X115649905Y-89857166D01*
X115646754Y-89835249D01*
X115652349Y-89822997D01*
X115653310Y-89809561D01*
X115666581Y-89791832D01*
X115675779Y-89771693D01*
X115687109Y-89764410D01*
X115695182Y-89753628D01*
X115715927Y-89745890D01*
X115734556Y-89733918D01*
X115756475Y-89730766D01*
X115760646Y-89729211D01*
X115769491Y-89728895D01*
X115919451Y-89728895D01*
X115919454Y-89728894D01*
X115927062Y-89728894D01*
X116917511Y-89728894D01*
X116984550Y-89748579D01*
X117005192Y-89765213D01*
X117532500Y-90292521D01*
X117532502Y-90292522D01*
X117532506Y-90292525D01*
X117647069Y-90358667D01*
X117669432Y-90371578D01*
X117822159Y-90412502D01*
X117980274Y-90412501D01*
X131677332Y-90412501D01*
X131677348Y-90412502D01*
X131684944Y-90412502D01*
X131843055Y-90412502D01*
X131843058Y-90412502D01*
X131995786Y-90371578D01*
X132045905Y-90342640D01*
X132132717Y-90292521D01*
X132244521Y-90180717D01*
X132244521Y-90180715D01*
X132254729Y-90170508D01*
X132254730Y-90170505D01*
X135856418Y-86568820D01*
X135917741Y-86535335D01*
X135944099Y-86532501D01*
X147657332Y-86532501D01*
X147657348Y-86532502D01*
X147664944Y-86532502D01*
X147823055Y-86532502D01*
X147823058Y-86532502D01*
X147975786Y-86491578D01*
X148025905Y-86462640D01*
X148112717Y-86412521D01*
X148224521Y-86300717D01*
X148224521Y-86300715D01*
X148234729Y-86290508D01*
X148234730Y-86290505D01*
X153136417Y-81388820D01*
X153197740Y-81355335D01*
X153224098Y-81352501D01*
X154722165Y-81352501D01*
X154789204Y-81372186D01*
X154832649Y-81420205D01*
X154866186Y-81486024D01*
X154995753Y-81664359D01*
X154995757Y-81664364D01*
X155151637Y-81820244D01*
X155151642Y-81820248D01*
X155307193Y-81933261D01*
X155329979Y-81949816D01*
X155446502Y-82009188D01*
X155526394Y-82049896D01*
X155526397Y-82049897D01*
X155631222Y-82083956D01*
X155736050Y-82118016D01*
X155953779Y-82152501D01*
X155953780Y-82152501D01*
X156174222Y-82152501D01*
X156174223Y-82152501D01*
X156391952Y-82118016D01*
X156601607Y-82049896D01*
X156798023Y-81949816D01*
X156976366Y-81820243D01*
X157026925Y-81769683D01*
X157088246Y-81736199D01*
X157157937Y-81741183D01*
X157213871Y-81783054D01*
X157230787Y-81814031D01*
X157260647Y-81894088D01*
X157260650Y-81894094D01*
X157346810Y-82009188D01*
X157346813Y-82009191D01*
X157461907Y-82095351D01*
X157461914Y-82095355D01*
X157596621Y-82145597D01*
X157596628Y-82145599D01*
X157656156Y-82152000D01*
X157656173Y-82152001D01*
X158354001Y-82152001D01*
X158354001Y-81127278D01*
X158430307Y-81171334D01*
X158544757Y-81202001D01*
X158663245Y-81202001D01*
X158777695Y-81171334D01*
X158854001Y-81127278D01*
X158854001Y-82152001D01*
X159551829Y-82152001D01*
X159551845Y-82152000D01*
X159611373Y-82145599D01*
X159611380Y-82145597D01*
X159746087Y-82095355D01*
X159746094Y-82095351D01*
X159861188Y-82009191D01*
X159861191Y-82009188D01*
X159947351Y-81894094D01*
X159947355Y-81894087D01*
X159997597Y-81759380D01*
X159997599Y-81759373D01*
X160004000Y-81699845D01*
X160004001Y-81699828D01*
X160004001Y-81002001D01*
X158979279Y-81002001D01*
X159023334Y-80925695D01*
X159054001Y-80811245D01*
X159054001Y-80692757D01*
X159023334Y-80578307D01*
X158979279Y-80502001D01*
X160004001Y-80502001D01*
X160004001Y-79804173D01*
X160004000Y-79804156D01*
X159997599Y-79744628D01*
X159997597Y-79744621D01*
X159947355Y-79609914D01*
X159947351Y-79609907D01*
X159861191Y-79494813D01*
X159861188Y-79494810D01*
X159746094Y-79408650D01*
X159746087Y-79408646D01*
X159611380Y-79358404D01*
X159611373Y-79358402D01*
X159551845Y-79352001D01*
X158854001Y-79352001D01*
X158854001Y-80376723D01*
X158777695Y-80332668D01*
X158663245Y-80302001D01*
X158544757Y-80302001D01*
X158430307Y-80332668D01*
X158354001Y-80376723D01*
X158354001Y-79352001D01*
X157656156Y-79352001D01*
X157596628Y-79358402D01*
X157596621Y-79358404D01*
X157461914Y-79408646D01*
X157461907Y-79408650D01*
X157346813Y-79494810D01*
X157346810Y-79494813D01*
X157260650Y-79609907D01*
X157260644Y-79609919D01*
X157230786Y-79689970D01*
X157188915Y-79745904D01*
X157123450Y-79770320D01*
X157055177Y-79755468D01*
X157026924Y-79734317D01*
X156976364Y-79683757D01*
X156976359Y-79683753D01*
X156798026Y-79554188D01*
X156798025Y-79554187D01*
X156798023Y-79554186D01*
X156735097Y-79522123D01*
X156601607Y-79454105D01*
X156601604Y-79454104D01*
X156391953Y-79385986D01*
X156283087Y-79368743D01*
X156174223Y-79351501D01*
X155953779Y-79351501D01*
X155881202Y-79362996D01*
X155736048Y-79385986D01*
X155526397Y-79454104D01*
X155526394Y-79454105D01*
X155329975Y-79554188D01*
X155151642Y-79683753D01*
X155151637Y-79683757D01*
X154995757Y-79839637D01*
X154995753Y-79839642D01*
X154866186Y-80017977D01*
X154832649Y-80083797D01*
X154784675Y-80134592D01*
X154722165Y-80151501D01*
X152844943Y-80151501D01*
X152692217Y-80192423D01*
X152654160Y-80214396D01*
X152654159Y-80214395D01*
X152555288Y-80271478D01*
X152555283Y-80271482D01*
X152443479Y-80383287D01*
X147531585Y-85295182D01*
X147470262Y-85328667D01*
X147443904Y-85331501D01*
X135730671Y-85331501D01*
X135730655Y-85331500D01*
X135723059Y-85331500D01*
X135564944Y-85331500D01*
X135488580Y-85351962D01*
X135412215Y-85372424D01*
X135412210Y-85372427D01*
X135275291Y-85451476D01*
X135275283Y-85451482D01*
X131551585Y-89175182D01*
X131490262Y-89208667D01*
X131463904Y-89211501D01*
X118201313Y-89211501D01*
X118134274Y-89191816D01*
X118113632Y-89175182D01*
X117586325Y-88647875D01*
X117586317Y-88647869D01*
X117449398Y-88568820D01*
X117449393Y-88568817D01*
X117411210Y-88558586D01*
X117296665Y-88527893D01*
X117296662Y-88527893D01*
X117138550Y-88527894D01*
X116140491Y-88527894D01*
X116073452Y-88508209D01*
X116052810Y-88491575D01*
X112320821Y-84759586D01*
X112287336Y-84698263D01*
X112284502Y-84671905D01*
X112284502Y-78701602D01*
X112304187Y-78634563D01*
X112352208Y-78591117D01*
X112365612Y-78584288D01*
X112531221Y-78463967D01*
X112675968Y-78319220D01*
X112675970Y-78319216D01*
X112675973Y-78319214D01*
X112728734Y-78246591D01*
X112796289Y-78153611D01*
X112889222Y-77971220D01*
X112952479Y-77776535D01*
X112984502Y-77574353D01*
X112984502Y-77369649D01*
X112952479Y-77167467D01*
X112889222Y-76972782D01*
X112889220Y-76972779D01*
X112889220Y-76972777D01*
X112855505Y-76906608D01*
X112796289Y-76790391D01*
X112788558Y-76779750D01*
X112675973Y-76624787D01*
X112531215Y-76480029D01*
X112365615Y-76359716D01*
X112365614Y-76359715D01*
X112365612Y-76359714D01*
X112308655Y-76330692D01*
X112183225Y-76266782D01*
X111988536Y-76203523D01*
X111813997Y-76175879D01*
X111786354Y-76171501D01*
X111581650Y-76171501D01*
X111557331Y-76175352D01*
X111379467Y-76203523D01*
X111184778Y-76266782D01*
X111002388Y-76359716D01*
X110836788Y-76480029D01*
X110692030Y-76624787D01*
X110571717Y-76790387D01*
X110478783Y-76972777D01*
X110415524Y-77167466D01*
X110383502Y-77369649D01*
X110383502Y-77574352D01*
X110415524Y-77776535D01*
X110478783Y-77971224D01*
X110571717Y-78153614D01*
X110692030Y-78319214D01*
X110692036Y-78319220D01*
X110836783Y-78463967D01*
X111002392Y-78584288D01*
X111015795Y-78591117D01*
X111066591Y-78639089D01*
X111083502Y-78701602D01*
X111083502Y-84892941D01*
X111083501Y-84892945D01*
X111083501Y-85031904D01*
X111083501Y-85042905D01*
X111063816Y-85109944D01*
X111011012Y-85155699D01*
X110950547Y-85164392D01*
X110941854Y-85165642D01*
X110941853Y-85165641D01*
X110941853Y-85165642D01*
X110920080Y-85155698D01*
X110878298Y-85136617D01*
X110871820Y-85130585D01*
X109780820Y-84039585D01*
X109747335Y-83978262D01*
X109744501Y-83951904D01*
X109744501Y-74249148D01*
X109764186Y-74182109D01*
X109780820Y-74161467D01*
X110473758Y-73468529D01*
X113265521Y-70676767D01*
X113344578Y-70539835D01*
X113385502Y-70387108D01*
X113385502Y-70228993D01*
X113385502Y-70221398D01*
X113385501Y-70221380D01*
X113385501Y-63202060D01*
X113385502Y-63202047D01*
X113385502Y-63033946D01*
X113385502Y-63033944D01*
X113344578Y-62881216D01*
X113315640Y-62831096D01*
X113265521Y-62744285D01*
X113153717Y-62632481D01*
X113153716Y-62632480D01*
X113149386Y-62628150D01*
X113149375Y-62628140D01*
X109380819Y-58859584D01*
X109347334Y-58798261D01*
X109344500Y-58771903D01*
X109344500Y-57624130D01*
X109344499Y-57624124D01*
X109338092Y-57564517D01*
X109287798Y-57429672D01*
X109287794Y-57429665D01*
X109201548Y-57314456D01*
X109201545Y-57314453D01*
X109086336Y-57228207D01*
X109086329Y-57228203D01*
X108951483Y-57177909D01*
X108951484Y-57177909D01*
X108898166Y-57172177D01*
X108833615Y-57145439D01*
X108793767Y-57088046D01*
X108791274Y-57018221D01*
X108826927Y-56958132D01*
X108838538Y-56948569D01*
X108941216Y-56873970D01*
X108941216Y-56873969D01*
X108941220Y-56873967D01*
X109085967Y-56729220D01*
X109085969Y-56729216D01*
X109085972Y-56729214D01*
X109138733Y-56656591D01*
X109206288Y-56563611D01*
X109299221Y-56381220D01*
X109362478Y-56186535D01*
X109394501Y-55984353D01*
X109394501Y-55779649D01*
X109362478Y-55577467D01*
X109357826Y-55563152D01*
X109357392Y-55547941D01*
X109352075Y-55533684D01*
X109356415Y-55513729D01*
X109355833Y-55493313D01*
X109363921Y-55479226D01*
X109366927Y-55465411D01*
X109388075Y-55437160D01*
X109502507Y-55322729D01*
X109502512Y-55322725D01*
X109512715Y-55312521D01*
X109512717Y-55312521D01*
X109624521Y-55200717D01*
X109691914Y-55083988D01*
X109703578Y-55063786D01*
X109744501Y-54911059D01*
X109744501Y-54752944D01*
X109744501Y-38173836D01*
X109764186Y-38106797D01*
X109812207Y-38063351D01*
X109812548Y-38063176D01*
X109878023Y-38029816D01*
X110056366Y-37900243D01*
X110212243Y-37744366D01*
X110341816Y-37566023D01*
X110441896Y-37369607D01*
X110510016Y-37159952D01*
X110544501Y-36942223D01*
X110544501Y-36721779D01*
X110510016Y-36504050D01*
X110475956Y-36399222D01*
X110441897Y-36294397D01*
X110441896Y-36294394D01*
X110407238Y-36226376D01*
X110341816Y-36097979D01*
X110325261Y-36075193D01*
X110212248Y-35919642D01*
X110212244Y-35919637D01*
X110056364Y-35763757D01*
X110056359Y-35763753D01*
X109878026Y-35634188D01*
X109878025Y-35634187D01*
X109878023Y-35634186D01*
X109815097Y-35602123D01*
X109681607Y-35534105D01*
X109681604Y-35534104D01*
X109471953Y-35465986D01*
X109363087Y-35448743D01*
X109254223Y-35431501D01*
X109033779Y-35431501D01*
X108961202Y-35442996D01*
X108816048Y-35465986D01*
X108606397Y-35534104D01*
X108606394Y-35534105D01*
X108409975Y-35634188D01*
X108231642Y-35763753D01*
X108231637Y-35763757D01*
X108181076Y-35814318D01*
X108119753Y-35847802D01*
X108050061Y-35842817D01*
X107994128Y-35800946D01*
X107977214Y-35769969D01*
X107947355Y-35689914D01*
X107947351Y-35689907D01*
X107861191Y-35574813D01*
X107861188Y-35574810D01*
X107746094Y-35488650D01*
X107746087Y-35488646D01*
X107611380Y-35438404D01*
X107611373Y-35438402D01*
X107551845Y-35432001D01*
X106854001Y-35432001D01*
X106854001Y-36456723D01*
X106777695Y-36412668D01*
X106663245Y-36382001D01*
X106544757Y-36382001D01*
X106430307Y-36412668D01*
X106354001Y-36456723D01*
X106354001Y-35432001D01*
X105656156Y-35432001D01*
X105596628Y-35438402D01*
X105596621Y-35438404D01*
X105461914Y-35488646D01*
X105461907Y-35488650D01*
X105346813Y-35574810D01*
X105346810Y-35574813D01*
X105260650Y-35689907D01*
X105260646Y-35689914D01*
X105210404Y-35824621D01*
X105210402Y-35824628D01*
X105204001Y-35884156D01*
X105204001Y-36582001D01*
X106228723Y-36582001D01*
X106184668Y-36658307D01*
X106154001Y-36772757D01*
X106154001Y-36891245D01*
X106184668Y-37005695D01*
X106228723Y-37082001D01*
X105204001Y-37082001D01*
X105204001Y-37779845D01*
X105210402Y-37839373D01*
X105210404Y-37839380D01*
X105260646Y-37974087D01*
X105260650Y-37974094D01*
X105346810Y-38089188D01*
X105346813Y-38089191D01*
X105461907Y-38175351D01*
X105461914Y-38175355D01*
X105596621Y-38225597D01*
X105596628Y-38225599D01*
X105656156Y-38232000D01*
X105656173Y-38232001D01*
X106354001Y-38232001D01*
X106354001Y-37207278D01*
X106430307Y-37251334D01*
X106544757Y-37282001D01*
X106663245Y-37282001D01*
X106777695Y-37251334D01*
X106854001Y-37207278D01*
X106854001Y-38232001D01*
X107551829Y-38232001D01*
X107551845Y-38232000D01*
X107611373Y-38225599D01*
X107611380Y-38225597D01*
X107746087Y-38175355D01*
X107746094Y-38175351D01*
X107861188Y-38089191D01*
X107861191Y-38089188D01*
X107947351Y-37974094D01*
X107947355Y-37974087D01*
X107977214Y-37894032D01*
X108019085Y-37838098D01*
X108084549Y-37813681D01*
X108152822Y-37828532D01*
X108181077Y-37849684D01*
X108231637Y-37900244D01*
X108231642Y-37900248D01*
X108409977Y-38029815D01*
X108475795Y-38063351D01*
X108526592Y-38111325D01*
X108543501Y-38173836D01*
X108543501Y-54491299D01*
X108523816Y-54558338D01*
X108471012Y-54604093D01*
X108401854Y-54614037D01*
X108400103Y-54613772D01*
X108259728Y-54591538D01*
X108196353Y-54581501D01*
X107991649Y-54581501D01*
X107967330Y-54585352D01*
X107789466Y-54613523D01*
X107594777Y-54676782D01*
X107412387Y-54769716D01*
X107246787Y-54890029D01*
X107102029Y-55034787D01*
X106981716Y-55200387D01*
X106888782Y-55382777D01*
X106825523Y-55577466D01*
X106793501Y-55779649D01*
X106793501Y-55984352D01*
X106825524Y-56186536D01*
X106830173Y-56200846D01*
X106832166Y-56270688D01*
X106799922Y-56326842D01*
X103695287Y-59431479D01*
X103583482Y-59543283D01*
X103583480Y-59543286D01*
X103541618Y-59615795D01*
X103541617Y-59615796D01*
X103504424Y-59680215D01*
X103504424Y-59680216D01*
X103463500Y-59832944D01*
X103463500Y-59832946D01*
X103463500Y-60001047D01*
X103463501Y-60001060D01*
X103463501Y-68622397D01*
X103443816Y-68689436D01*
X103395801Y-68732879D01*
X103382390Y-68739712D01*
X103216787Y-68860028D01*
X103072029Y-69004786D01*
X102951716Y-69170386D01*
X102858782Y-69352776D01*
X102795523Y-69547465D01*
X102763501Y-69749648D01*
X102763501Y-69954351D01*
X102795523Y-70156534D01*
X102858782Y-70351223D01*
X102877066Y-70387106D01*
X102944885Y-70520208D01*
X102951716Y-70533613D01*
X103072029Y-70699213D01*
X103216787Y-70843971D01*
X103371750Y-70956556D01*
X103382391Y-70964287D01*
X103498608Y-71023503D01*
X103564777Y-71057218D01*
X103564779Y-71057218D01*
X103564782Y-71057220D01*
X103669138Y-71091127D01*
X103759466Y-71120477D01*
X103860558Y-71136488D01*
X103961649Y-71152500D01*
X103961650Y-71152500D01*
X104166352Y-71152500D01*
X104166353Y-71152500D01*
X104368535Y-71120477D01*
X104563220Y-71057220D01*
X104745611Y-70964287D01*
X104838591Y-70896732D01*
X104911214Y-70843971D01*
X104911216Y-70843968D01*
X104911220Y-70843966D01*
X105055967Y-70699219D01*
X105176288Y-70533610D01*
X105183117Y-70520206D01*
X105231089Y-70469411D01*
X105293602Y-70452500D01*
X110454398Y-70452500D01*
X110521437Y-70472185D01*
X110564882Y-70520203D01*
X110571715Y-70533614D01*
X110692029Y-70699214D01*
X110836787Y-70843972D01*
X111002386Y-70964285D01*
X111002388Y-70964286D01*
X111002391Y-70964288D01*
X111033913Y-70980349D01*
X111084709Y-71028323D01*
X111101504Y-71096144D01*
X111078967Y-71162279D01*
X111065299Y-71178515D01*
X108775287Y-73468529D01*
X108663482Y-73580333D01*
X108663480Y-73580336D01*
X108613362Y-73667145D01*
X108613360Y-73667147D01*
X108584426Y-73717260D01*
X108584425Y-73717261D01*
X108584424Y-73717266D01*
X108543500Y-73869994D01*
X108543500Y-73869996D01*
X108543500Y-74038097D01*
X108543501Y-74038110D01*
X108543501Y-84165331D01*
X108543500Y-84165349D01*
X108543500Y-84331055D01*
X108543499Y-84331055D01*
X108584424Y-84483786D01*
X108588865Y-84491477D01*
X108588866Y-84491483D01*
X108588868Y-84491483D01*
X108663478Y-84620713D01*
X108663482Y-84620718D01*
X108782350Y-84739586D01*
X108782356Y-84739591D01*
X111821585Y-87778820D01*
X111855070Y-87840143D01*
X111850086Y-87909835D01*
X111808214Y-87965768D01*
X111742750Y-87990185D01*
X111733904Y-87990501D01*
X102554098Y-87990501D01*
X102487059Y-87970816D01*
X102441304Y-87918012D01*
X102431360Y-87848854D01*
X102460385Y-87785298D01*
X102466417Y-87778820D01*
X102638953Y-87606283D01*
X104422507Y-85822728D01*
X104422512Y-85822725D01*
X104432715Y-85812521D01*
X104432717Y-85812521D01*
X104544521Y-85700717D01*
X104623578Y-85563785D01*
X104664501Y-85411058D01*
X104664501Y-78701602D01*
X104684186Y-78634563D01*
X104732207Y-78591117D01*
X104745611Y-78584288D01*
X104911220Y-78463967D01*
X105055967Y-78319220D01*
X105055969Y-78319216D01*
X105055972Y-78319214D01*
X105108733Y-78246591D01*
X105176288Y-78153611D01*
X105269221Y-77971220D01*
X105332478Y-77776535D01*
X105364501Y-77574353D01*
X105364501Y-77369649D01*
X105332478Y-77167467D01*
X105269221Y-76972782D01*
X105269219Y-76972779D01*
X105269219Y-76972777D01*
X105235504Y-76906608D01*
X105176288Y-76790391D01*
X105168557Y-76779750D01*
X105055972Y-76624787D01*
X104911214Y-76480029D01*
X104745614Y-76359716D01*
X104745613Y-76359715D01*
X104745611Y-76359714D01*
X104688654Y-76330692D01*
X104563224Y-76266782D01*
X104368535Y-76203523D01*
X104193996Y-76175879D01*
X104166353Y-76171501D01*
X103961649Y-76171501D01*
X103937330Y-76175352D01*
X103759466Y-76203523D01*
X103564777Y-76266782D01*
X103382387Y-76359716D01*
X103216787Y-76480029D01*
X103072029Y-76624787D01*
X102951716Y-76790387D01*
X102858782Y-76972777D01*
X102795523Y-77167466D01*
X102763501Y-77369649D01*
X102763501Y-77574352D01*
X102795523Y-77776535D01*
X102858782Y-77971224D01*
X102951716Y-78153614D01*
X103072029Y-78319214D01*
X103072035Y-78319220D01*
X103216782Y-78463967D01*
X103382391Y-78584288D01*
X103395794Y-78591117D01*
X103446590Y-78639089D01*
X103463501Y-78701602D01*
X103463501Y-85031904D01*
X103443816Y-85098943D01*
X103427182Y-85119585D01*
X98221585Y-90325182D01*
X98160262Y-90358667D01*
X98133904Y-90361501D01*
X87474098Y-90361501D01*
X87407059Y-90341816D01*
X87386417Y-90325182D01*
X84331591Y-87270356D01*
X84331589Y-87270353D01*
X84212718Y-87151482D01*
X84212717Y-87151481D01*
X84125905Y-87101361D01*
X84125905Y-87101360D01*
X84125901Y-87101359D01*
X84075786Y-87072424D01*
X83923058Y-87031500D01*
X83764944Y-87031500D01*
X83757348Y-87031500D01*
X83757332Y-87031501D01*
X69054098Y-87031501D01*
X68987059Y-87011816D01*
X68966417Y-86995182D01*
X62361591Y-80390356D01*
X62361589Y-80390353D01*
X62242718Y-80271482D01*
X62242717Y-80271481D01*
X62143840Y-80214395D01*
X62143839Y-80214394D01*
X62105784Y-80192423D01*
X62049882Y-80177444D01*
X61953058Y-80151500D01*
X61794944Y-80151500D01*
X61787348Y-80151500D01*
X61787332Y-80151501D01*
X61445837Y-80151501D01*
X61378798Y-80131816D01*
X61335353Y-80083797D01*
X61301815Y-80017977D01*
X61172248Y-79839642D01*
X61172244Y-79839637D01*
X61016364Y-79683757D01*
X61016359Y-79683753D01*
X60838026Y-79554188D01*
X60838025Y-79554187D01*
X60838023Y-79554186D01*
X60775097Y-79522123D01*
X60641607Y-79454105D01*
X60641604Y-79454104D01*
X60431953Y-79385986D01*
X60323087Y-79368743D01*
X60214223Y-79351501D01*
X59993779Y-79351501D01*
X59921202Y-79362996D01*
X59776048Y-79385986D01*
X59566397Y-79454104D01*
X59566394Y-79454105D01*
X59369975Y-79554188D01*
X59191642Y-79683753D01*
X59191637Y-79683757D01*
X59141076Y-79734318D01*
X59079753Y-79767802D01*
X59010061Y-79762817D01*
X58954128Y-79720946D01*
X58937214Y-79689969D01*
X58907355Y-79609914D01*
X58907351Y-79609907D01*
X58821191Y-79494813D01*
X58821188Y-79494810D01*
X58706094Y-79408650D01*
X58706087Y-79408646D01*
X58571380Y-79358404D01*
X58571373Y-79358402D01*
X58511845Y-79352001D01*
X57814001Y-79352001D01*
X57814001Y-80376723D01*
X57737695Y-80332668D01*
X57623245Y-80302001D01*
X57504757Y-80302001D01*
X57390307Y-80332668D01*
X57314001Y-80376723D01*
X57314001Y-79352001D01*
X56616156Y-79352001D01*
X56556628Y-79358402D01*
X56556621Y-79358404D01*
X56421914Y-79408646D01*
X56421907Y-79408650D01*
X56306813Y-79494810D01*
X56306810Y-79494813D01*
X56220650Y-79609907D01*
X56220646Y-79609914D01*
X56170404Y-79744621D01*
X56170402Y-79744628D01*
X56164001Y-79804156D01*
X52664501Y-79804156D01*
X52664501Y-78900971D01*
X52664503Y-78900208D01*
X52669097Y-78153611D01*
X52679482Y-76465865D01*
X52699579Y-76398951D01*
X52752664Y-76353522D01*
X52821882Y-76344004D01*
X52836296Y-76347052D01*
X70741016Y-81261510D01*
X90256790Y-86673699D01*
X90256825Y-86673720D01*
X90320414Y-86691344D01*
X90320416Y-86691344D01*
X90320417Y-86691345D01*
X90332363Y-86694657D01*
X90383744Y-86708907D01*
X90383750Y-86708907D01*
X90383814Y-86708915D01*
X90383822Y-86708918D01*
X90450253Y-86709486D01*
X90450274Y-86709493D01*
X90450275Y-86709487D01*
X90515524Y-86710057D01*
X90515524Y-86710056D01*
X90523884Y-86710130D01*
X90524045Y-86710119D01*
X100885189Y-86798929D01*
X100886512Y-86799288D01*
X100951136Y-86799494D01*
X101015601Y-86800047D01*
X101015602Y-86800046D01*
X101015653Y-86800047D01*
X101016826Y-86799897D01*
X101016852Y-86799894D01*
X101018288Y-86799708D01*
X101018296Y-86799709D01*
X101080513Y-86783249D01*
X101080960Y-86783133D01*
X101143183Y-86767032D01*
X101143194Y-86767025D01*
X101144667Y-86766431D01*
X101144670Y-86766430D01*
X101145646Y-86766035D01*
X101145692Y-86766008D01*
X101145698Y-86766007D01*
X101201504Y-86734023D01*
X101201938Y-86733777D01*
X101257862Y-86702125D01*
X101257861Y-86702125D01*
X101257871Y-86702120D01*
X101257878Y-86702112D01*
X101259115Y-86701181D01*
X101259115Y-86701180D01*
X101259135Y-86701166D01*
X101260005Y-86700509D01*
X101260034Y-86700480D01*
X101260036Y-86700479D01*
X101305785Y-86655020D01*
X101351853Y-86609736D01*
X101352543Y-86608562D01*
X101353513Y-86607599D01*
X101385798Y-86552091D01*
X101386135Y-86551516D01*
X101398133Y-86531138D01*
X101418720Y-86496177D01*
X101418722Y-86496168D01*
X101419364Y-86494656D01*
X101419364Y-86494655D01*
X101419372Y-86494637D01*
X101419762Y-86493717D01*
X101419774Y-86493673D01*
X101436672Y-86431401D01*
X101453918Y-86369180D01*
X101453918Y-86369167D01*
X101454126Y-86367688D01*
X101454126Y-86367686D01*
X101454131Y-86367654D01*
X101454287Y-86366537D01*
X101454287Y-86366493D01*
X101454288Y-86366490D01*
X101454493Y-86302057D01*
X101455048Y-86237401D01*
X101455047Y-86237398D01*
X101455087Y-86232790D01*
X101454733Y-86226844D01*
X101524405Y-64389803D01*
X101524982Y-64378253D01*
X102129989Y-58139729D01*
X102131166Y-58130909D01*
X103318555Y-51164903D01*
X103323479Y-51152506D01*
X103329595Y-51100133D01*
X103338457Y-51048146D01*
X103338427Y-51047825D01*
X103338728Y-51021928D01*
X104124483Y-44293903D01*
X104127403Y-44285754D01*
X104132109Y-44228608D01*
X104138766Y-44171612D01*
X104137509Y-44163040D01*
X104138220Y-44154415D01*
X104127976Y-44097998D01*
X104119654Y-44041221D01*
X104116222Y-44033268D01*
X104114676Y-44024750D01*
X104090171Y-43972889D01*
X104067446Y-43920220D01*
X104067444Y-43920217D01*
X104063282Y-43913245D01*
X104063701Y-43912994D01*
X104063186Y-43912163D01*
X104062776Y-43912428D01*
X104058377Y-43905600D01*
X104022632Y-43863439D01*
X104021270Y-43861832D01*
X103985698Y-43816853D01*
X103978751Y-43811682D01*
X103973152Y-43805078D01*
X103926003Y-43772420D01*
X103879984Y-43738167D01*
X103871935Y-43734970D01*
X103860283Y-43726899D01*
X103860282Y-43726898D01*
X94339845Y-37132575D01*
X92679861Y-35982788D01*
X83917895Y-29913819D01*
X83873993Y-29859464D01*
X83864501Y-29811883D01*
X83864501Y-27961103D01*
X83865155Y-27948387D01*
X83890672Y-27700872D01*
X83958916Y-27038901D01*
X83960605Y-27027633D01*
X83968640Y-26986884D01*
X84000922Y-26924919D01*
X84061580Y-26890244D01*
X84119760Y-26890423D01*
G37*
%TD.AperFunction*%
%TD*%
M02*
