%TF.GenerationSoftware,KiCad,Pcbnew,9.0.1*%
%TF.CreationDate,2026-04-05T14:34:15+03:00*%
%TF.ProjectId,b738-anahtarlik,62373338-2d61-46e6-9168-7461726c696b,rev?*%
%TF.SameCoordinates,Original*%
%TF.FileFunction,Legend,Top*%
%TF.FilePolarity,Positive*%
%FSLAX46Y46*%
G04 Gerber Fmt 4.6, Leading zero omitted, Abs format (unit mm)*
G04 Created by KiCad (PCBNEW 9.0.1) date 2026-04-05 14:34:15*
%MOMM*%
%LPD*%
G01*
G04 APERTURE LIST*
%ADD10C,0.150000*%
%ADD11C,0.300000*%
%ADD12C,0.120000*%
G04 APERTURE END LIST*
D10*
X106201202Y-56248333D02*
X106248821Y-56105476D01*
X106248821Y-56105476D02*
X106248821Y-55867381D01*
X106248821Y-55867381D02*
X106201202Y-55772143D01*
X106201202Y-55772143D02*
X106153582Y-55724524D01*
X106153582Y-55724524D02*
X106058344Y-55676905D01*
X106058344Y-55676905D02*
X105963106Y-55676905D01*
X105963106Y-55676905D02*
X105867868Y-55724524D01*
X105867868Y-55724524D02*
X105820249Y-55772143D01*
X105820249Y-55772143D02*
X105772630Y-55867381D01*
X105772630Y-55867381D02*
X105725011Y-56057857D01*
X105725011Y-56057857D02*
X105677392Y-56153095D01*
X105677392Y-56153095D02*
X105629773Y-56200714D01*
X105629773Y-56200714D02*
X105534535Y-56248333D01*
X105534535Y-56248333D02*
X105439297Y-56248333D01*
X105439297Y-56248333D02*
X105344059Y-56200714D01*
X105344059Y-56200714D02*
X105296440Y-56153095D01*
X105296440Y-56153095D02*
X105248821Y-56057857D01*
X105248821Y-56057857D02*
X105248821Y-55819762D01*
X105248821Y-55819762D02*
X105296440Y-55676905D01*
X105248821Y-55343571D02*
X106248821Y-55105476D01*
X106248821Y-55105476D02*
X105534535Y-54915000D01*
X105534535Y-54915000D02*
X106248821Y-54724524D01*
X106248821Y-54724524D02*
X105248821Y-54486429D01*
X106248821Y-53581667D02*
X106248821Y-54153095D01*
X106248821Y-53867381D02*
X105248821Y-53867381D01*
X105248821Y-53867381D02*
X105391678Y-53962619D01*
X105391678Y-53962619D02*
X105486916Y-54057857D01*
X105486916Y-54057857D02*
X105534535Y-54153095D01*
D11*
X93252573Y-91241758D02*
X93109716Y-91170329D01*
X93109716Y-91170329D02*
X92895430Y-91170329D01*
X92895430Y-91170329D02*
X92681144Y-91241758D01*
X92681144Y-91241758D02*
X92538287Y-91384615D01*
X92538287Y-91384615D02*
X92466858Y-91527472D01*
X92466858Y-91527472D02*
X92395430Y-91813186D01*
X92395430Y-91813186D02*
X92395430Y-92027472D01*
X92395430Y-92027472D02*
X92466858Y-92313186D01*
X92466858Y-92313186D02*
X92538287Y-92456043D01*
X92538287Y-92456043D02*
X92681144Y-92598901D01*
X92681144Y-92598901D02*
X92895430Y-92670329D01*
X92895430Y-92670329D02*
X93038287Y-92670329D01*
X93038287Y-92670329D02*
X93252573Y-92598901D01*
X93252573Y-92598901D02*
X93324001Y-92527472D01*
X93324001Y-92527472D02*
X93324001Y-92027472D01*
X93324001Y-92027472D02*
X93038287Y-92027472D01*
X94181144Y-91170329D02*
X94181144Y-91527472D01*
X93824001Y-91384615D02*
X94181144Y-91527472D01*
X94181144Y-91527472D02*
X94538287Y-91384615D01*
X93966858Y-91813186D02*
X94181144Y-91527472D01*
X94181144Y-91527472D02*
X94395430Y-91813186D01*
X95324001Y-91170329D02*
X95324001Y-91527472D01*
X94966858Y-91384615D02*
X95324001Y-91527472D01*
X95324001Y-91527472D02*
X95681144Y-91384615D01*
X95109715Y-91813186D02*
X95324001Y-91527472D01*
X95324001Y-91527472D02*
X95538287Y-91813186D01*
X96466858Y-91170329D02*
X96466858Y-91527472D01*
X96109715Y-91384615D02*
X96466858Y-91527472D01*
X96466858Y-91527472D02*
X96824001Y-91384615D01*
X96252572Y-91813186D02*
X96466858Y-91527472D01*
X96466858Y-91527472D02*
X96681144Y-91813186D01*
D10*
X114418820Y-77358667D02*
X113942629Y-77692000D01*
X114418820Y-77930095D02*
X113418820Y-77930095D01*
X113418820Y-77930095D02*
X113418820Y-77549143D01*
X113418820Y-77549143D02*
X113466439Y-77453905D01*
X113466439Y-77453905D02*
X113514058Y-77406286D01*
X113514058Y-77406286D02*
X113609296Y-77358667D01*
X113609296Y-77358667D02*
X113752153Y-77358667D01*
X113752153Y-77358667D02*
X113847391Y-77406286D01*
X113847391Y-77406286D02*
X113895010Y-77453905D01*
X113895010Y-77453905D02*
X113942629Y-77549143D01*
X113942629Y-77549143D02*
X113942629Y-77930095D01*
X114418820Y-76406286D02*
X114418820Y-76977714D01*
X114418820Y-76692000D02*
X113418820Y-76692000D01*
X113418820Y-76692000D02*
X113561677Y-76787238D01*
X113561677Y-76787238D02*
X113656915Y-76882476D01*
X113656915Y-76882476D02*
X113704534Y-76977714D01*
X106858820Y-76778667D02*
X106382629Y-77112000D01*
X106858820Y-77350095D02*
X105858820Y-77350095D01*
X105858820Y-77350095D02*
X105858820Y-76969143D01*
X105858820Y-76969143D02*
X105906439Y-76873905D01*
X105906439Y-76873905D02*
X105954058Y-76826286D01*
X105954058Y-76826286D02*
X106049296Y-76778667D01*
X106049296Y-76778667D02*
X106192153Y-76778667D01*
X106192153Y-76778667D02*
X106287391Y-76826286D01*
X106287391Y-76826286D02*
X106335010Y-76873905D01*
X106335010Y-76873905D02*
X106382629Y-76969143D01*
X106382629Y-76969143D02*
X106382629Y-77350095D01*
X105954058Y-76397714D02*
X105906439Y-76350095D01*
X105906439Y-76350095D02*
X105858820Y-76254857D01*
X105858820Y-76254857D02*
X105858820Y-76016762D01*
X105858820Y-76016762D02*
X105906439Y-75921524D01*
X105906439Y-75921524D02*
X105954058Y-75873905D01*
X105954058Y-75873905D02*
X106049296Y-75826286D01*
X106049296Y-75826286D02*
X106144534Y-75826286D01*
X106144534Y-75826286D02*
X106287391Y-75873905D01*
X106287391Y-75873905D02*
X106858820Y-76445333D01*
X106858820Y-76445333D02*
X106858820Y-75826286D01*
X98528286Y-106963010D02*
X98671143Y-107010629D01*
X98671143Y-107010629D02*
X98718762Y-107058248D01*
X98718762Y-107058248D02*
X98766381Y-107153486D01*
X98766381Y-107153486D02*
X98766381Y-107296343D01*
X98766381Y-107296343D02*
X98718762Y-107391581D01*
X98718762Y-107391581D02*
X98671143Y-107439201D01*
X98671143Y-107439201D02*
X98575905Y-107486820D01*
X98575905Y-107486820D02*
X98194953Y-107486820D01*
X98194953Y-107486820D02*
X98194953Y-106486820D01*
X98194953Y-106486820D02*
X98528286Y-106486820D01*
X98528286Y-106486820D02*
X98623524Y-106534439D01*
X98623524Y-106534439D02*
X98671143Y-106582058D01*
X98671143Y-106582058D02*
X98718762Y-106677296D01*
X98718762Y-106677296D02*
X98718762Y-106772534D01*
X98718762Y-106772534D02*
X98671143Y-106867772D01*
X98671143Y-106867772D02*
X98623524Y-106915391D01*
X98623524Y-106915391D02*
X98528286Y-106963010D01*
X98528286Y-106963010D02*
X98194953Y-106963010D01*
X99052096Y-106486820D02*
X99623524Y-106486820D01*
X99337810Y-107486820D02*
X99337810Y-106486820D01*
X100480667Y-107486820D02*
X99909239Y-107486820D01*
X100194953Y-107486820D02*
X100194953Y-106486820D01*
X100194953Y-106486820D02*
X100099715Y-106629677D01*
X100099715Y-106629677D02*
X100004477Y-106724915D01*
X100004477Y-106724915D02*
X99909239Y-106772534D01*
X161675906Y-79936820D02*
X161675906Y-78936820D01*
X161675906Y-78936820D02*
X161914001Y-78936820D01*
X161914001Y-78936820D02*
X162056858Y-78984439D01*
X162056858Y-78984439D02*
X162152096Y-79079677D01*
X162152096Y-79079677D02*
X162199715Y-79174915D01*
X162199715Y-79174915D02*
X162247334Y-79365391D01*
X162247334Y-79365391D02*
X162247334Y-79508248D01*
X162247334Y-79508248D02*
X162199715Y-79698724D01*
X162199715Y-79698724D02*
X162152096Y-79793962D01*
X162152096Y-79793962D02*
X162056858Y-79889201D01*
X162056858Y-79889201D02*
X161914001Y-79936820D01*
X161914001Y-79936820D02*
X161675906Y-79936820D01*
X163199715Y-79936820D02*
X162628287Y-79936820D01*
X162914001Y-79936820D02*
X162914001Y-78936820D01*
X162914001Y-78936820D02*
X162818763Y-79079677D01*
X162818763Y-79079677D02*
X162723525Y-79174915D01*
X162723525Y-79174915D02*
X162628287Y-79222534D01*
X107135906Y-33326820D02*
X107135906Y-32326820D01*
X107135906Y-32326820D02*
X107374001Y-32326820D01*
X107374001Y-32326820D02*
X107516858Y-32374439D01*
X107516858Y-32374439D02*
X107612096Y-32469677D01*
X107612096Y-32469677D02*
X107659715Y-32564915D01*
X107659715Y-32564915D02*
X107707334Y-32755391D01*
X107707334Y-32755391D02*
X107707334Y-32898248D01*
X107707334Y-32898248D02*
X107659715Y-33088724D01*
X107659715Y-33088724D02*
X107612096Y-33183962D01*
X107612096Y-33183962D02*
X107516858Y-33279201D01*
X107516858Y-33279201D02*
X107374001Y-33326820D01*
X107374001Y-33326820D02*
X107135906Y-33326820D01*
X108040668Y-32326820D02*
X108659715Y-32326820D01*
X108659715Y-32326820D02*
X108326382Y-32707772D01*
X108326382Y-32707772D02*
X108469239Y-32707772D01*
X108469239Y-32707772D02*
X108564477Y-32755391D01*
X108564477Y-32755391D02*
X108612096Y-32803010D01*
X108612096Y-32803010D02*
X108659715Y-32898248D01*
X108659715Y-32898248D02*
X108659715Y-33136343D01*
X108659715Y-33136343D02*
X108612096Y-33231581D01*
X108612096Y-33231581D02*
X108564477Y-33279201D01*
X108564477Y-33279201D02*
X108469239Y-33326820D01*
X108469239Y-33326820D02*
X108183525Y-33326820D01*
X108183525Y-33326820D02*
X108088287Y-33279201D01*
X108088287Y-33279201D02*
X108040668Y-33231581D01*
X53432105Y-80436820D02*
X53432105Y-79436820D01*
X53432105Y-79436820D02*
X53670200Y-79436820D01*
X53670200Y-79436820D02*
X53813057Y-79484439D01*
X53813057Y-79484439D02*
X53908295Y-79579677D01*
X53908295Y-79579677D02*
X53955914Y-79674915D01*
X53955914Y-79674915D02*
X54003533Y-79865391D01*
X54003533Y-79865391D02*
X54003533Y-80008248D01*
X54003533Y-80008248D02*
X53955914Y-80198724D01*
X53955914Y-80198724D02*
X53908295Y-80293962D01*
X53908295Y-80293962D02*
X53813057Y-80389201D01*
X53813057Y-80389201D02*
X53670200Y-80436820D01*
X53670200Y-80436820D02*
X53432105Y-80436820D01*
X54384486Y-79532058D02*
X54432105Y-79484439D01*
X54432105Y-79484439D02*
X54527343Y-79436820D01*
X54527343Y-79436820D02*
X54765438Y-79436820D01*
X54765438Y-79436820D02*
X54860676Y-79484439D01*
X54860676Y-79484439D02*
X54908295Y-79532058D01*
X54908295Y-79532058D02*
X54955914Y-79627296D01*
X54955914Y-79627296D02*
X54955914Y-79722534D01*
X54955914Y-79722534D02*
X54908295Y-79865391D01*
X54908295Y-79865391D02*
X54336867Y-80436820D01*
X54336867Y-80436820D02*
X54955914Y-80436820D01*
%TO.C,SW1*%
D12*
X106734001Y-63532001D02*
X109454001Y-63532001D01*
X109454001Y-53312001D01*
X106734001Y-53312001D01*
X106734001Y-63532001D01*
%TO.C,R1*%
X113054003Y-70392001D02*
X112724002Y-70392001D01*
X110314002Y-70392001D02*
X110644002Y-70392001D01*
X113054002Y-76932001D02*
X113054003Y-70392001D01*
X112724002Y-76932001D02*
X113054002Y-76932001D01*
X110644002Y-76932001D02*
X110314002Y-76932001D01*
X110314002Y-76932001D02*
X110314002Y-70392001D01*
%TO.C,R2*%
X105434002Y-70392001D02*
X105104000Y-70392001D01*
X102694001Y-70392001D02*
X103024001Y-70392001D01*
X105434001Y-76932001D02*
X105434002Y-70392001D01*
X105104001Y-76932000D02*
X105434001Y-76932001D01*
X103024001Y-76932001D02*
X102694000Y-76932001D01*
X102694000Y-76932001D02*
X102694001Y-70392001D01*
%TO.C,BT1*%
X92554000Y-95042001D02*
X92554000Y-100542001D01*
X92554000Y-100542001D02*
X97354000Y-100542001D01*
X97304000Y-103842001D02*
X104154000Y-108642001D01*
X97354000Y-95042001D02*
X92554000Y-95042001D01*
X97554000Y-88292001D02*
X104254000Y-88292001D01*
X104154000Y-108642001D02*
X112054000Y-108642001D01*
X112054000Y-108642001D02*
X118854000Y-103842001D01*
X118654000Y-88292001D02*
X111954000Y-88292001D01*
X118854000Y-100542001D02*
X123654000Y-100542001D01*
X123654000Y-95042001D02*
X118854000Y-95042001D01*
X123654000Y-100542001D02*
X123654000Y-95042001D01*
X104257615Y-88290537D02*
G75*
G02*
X111954000Y-88292001I3846385J-9501464D01*
G01*
%TO.C,D1*%
X159834001Y-80752001D02*
G75*
G02*
X154834001Y-80752001I-2500000J0D01*
G01*
X154834001Y-80752001D02*
G75*
G02*
X159834001Y-80752001I2500000J0D01*
G01*
X154344001Y-80751953D02*
G75*
G02*
X159894001Y-79207171I2990000J-48D01*
G01*
X159894001Y-82296831D02*
G75*
G02*
X154344001Y-80752049I-2560000J1544830D01*
G01*
X159894001Y-82297001D02*
X159894001Y-79207001D01*
%TO.C,D3*%
X105314001Y-35287001D02*
X105314001Y-38377001D01*
X105314001Y-35287171D02*
G75*
G02*
X110864001Y-36831953I2560000J-1544830D01*
G01*
X110864001Y-36832049D02*
G75*
G02*
X105314001Y-38376831I-2990000J48D01*
G01*
X110374001Y-36832001D02*
G75*
G02*
X105374001Y-36832001I-2500000J0D01*
G01*
X105374001Y-36832001D02*
G75*
G02*
X110374001Y-36832001I2500000J0D01*
G01*
%TO.C,D2*%
X56274001Y-79207001D02*
X56274001Y-82297001D01*
X56274001Y-79207171D02*
G75*
G02*
X61824001Y-80751953I2560000J-1544830D01*
G01*
X61824001Y-80752049D02*
G75*
G02*
X56274001Y-82296831I-2990000J48D01*
G01*
X61334001Y-80752001D02*
G75*
G02*
X56334001Y-80752001I-2500000J0D01*
G01*
X56334001Y-80752001D02*
G75*
G02*
X61334001Y-80752001I2500000J0D01*
G01*
%TD*%
M02*
